<?xml version="1.0" standalone="no"?>
<!DOCTYPE svg PUBLIC "-//W3C//DTD SVG 1.1//EN" "http://www.w3.org/Graphics/SVG/1.1/DTD/svg11.dtd" >
<svg xmlns="http://www.w3.org/2000/svg">
<metadata></metadata>
<defs>
<font id="swallow_fallsregular" horiz-adv-x="825" >
<font-face units-per-em="2048" ascent="1638" descent="-410" />
<missing-glyph horiz-adv-x="512" />
<glyph horiz-adv-x="2048" />
<glyph horiz-adv-x="2048" />
<glyph unicode="&#xd;" horiz-adv-x="512" />
<glyph unicode=" "  horiz-adv-x="512" />
<glyph unicode="&#x09;" horiz-adv-x="512" />
<glyph unicode="&#xa0;" horiz-adv-x="512" />
<glyph unicode="!" horiz-adv-x="403" d="M10 88q0 51 31 80t78 29q49 0 78.5 -30t27.5 -77q0 -57 -29.5 -85t-76.5 -28q-53 0 -81 32t-28 79zM55 262l11 1170h235l-92 -1184z" />
<glyph unicode="&#x22;" horiz-adv-x="520" d="M6 1446h187l-25 -436h-119zM283 1446h186l-43 -436h-119z" />
<glyph unicode="#" horiz-adv-x="894" d="M-2 1223l164 2l-6 262h155l2 -260l199 2l23 225l147 -14l-27 -207l138 2l-7 -133l-147 -4l-25 -187l134 11l12 -152l-164 -4l-18 -158l-125 23l12 131l-148 -4l2 -152l-139 -6l-4 154l-133 -4l-16 114l145 10l-6 213l-166 -2zM313 1092l2 -205l164 12l19 197z" />
<glyph unicode="$" horiz-adv-x="897" d="M6 270l135 60q12 -31 29 -58q14 -25 32.5 -50t45.5 -46v-2l63 436q-20 33 -43 68q-47 70 -87 137.5t-58 132.5q-29 98 -7.5 182t74 146.5t123.5 95.5q59 27 115 31l23 149l129 -4l-27 -162q33 -6 59 -20q63 -29 105 -63q47 -39 78 -89l-138 -67q-25 41 -61 70 q-27 20 -64 34l-90 -565q20 -31 41 -63q59 -88 102.5 -183.5t39.5 -189.5q-4 -74 -40 -128t-91.5 -85t-122.5 -35q-18 -2 -37 0l-17 -111l-108 9l18 125q-59 23 -98 61q-41 43 -70 84q-33 47 -53 100zM257 1055.5q-1 -54.5 24 -111.5q20 -55 63 -119l64 441q-41 -10 -74 -39 q-35 -29 -55.5 -73t-21.5 -98.5zM354 131q27 0 54 12q27 14 47 47q31 45 22.5 101.5t-39.5 120.5q-14 27 -30 55z" />
<glyph unicode="%" horiz-adv-x="845" d="M4 1230v62q4 68 31.5 107t87.5 43q12 0 31.5 -1t40 -13.5t36 -38t19.5 -72.5t6 -113.5t2 -131t-1 -115t-1 -64.5t-5 -34.5t-17.5 -40t-34 -34t-56.5 -14.5q-72 -2 -101.5 45t-33.5 129q0 33 -1 85t-2 104.5t-1 96.5zM80 1251q0 -12 1 -59t2 -101.5t3 -101.5t2 -61 q6 -57 51 -56q29 2 36 20t7 38q0 8 -2 53t-4 100.5t-4 106.5t-2 72q-2 35 -13.5 48t-33.5 11q-27 0 -35 -17.5t-8 -52.5zM184 -100l240 1652l125 -6l-264 -1655zM457 476v65q4 66 28.5 102.5t83.5 40.5q12 2 34 0t43.5 -15.5t39 -40t21.5 -73.5q8 -96 15 -203.5t7 -193.5 q0 -25 -6 -50.5t-20.5 -47t-38 -37t-60.5 -15.5q-72 -2 -105.5 45t-35.5 131q-2 33 -3 85.5t-2 106.5t-1 100zM528 489q0 -12 2 -58t4.5 -98t4.5 -98.5t2 -60.5q4 -41 17 -56.5t42 -15.5q33 2 40 22.5t7 49.5q0 8 -3 53t-6 99.5t-6 104.5t-3 71q-2 35 -17.5 52t-36.5 15 q-29 0 -38 -23.5t-9 -56.5z" />
<glyph unicode="&#x26;" horiz-adv-x="919" d="M-3 239.5q-11 79.5 17 188.5q18 76 73.5 147.5t121.5 147.5q-20 45 -39.5 100.5t-30.5 110.5q-16 86 -7 176t32 160q10 33 31.5 67.5t54.5 59t77 37t99 0.5q51 -10 83 -40t47 -67t18.5 -77t0.5 -72q-8 -72 -30.5 -150t-89.5 -180q-25 -37 -49.5 -70t-47.5 -61 q8 -12 13 -17q27 -39 78 -110.5t110 -149.5q8 59 8 116.5t2 100.5l201 5q0 -61 -8 -130q-8 -57 -23.5 -126.5t-46.5 -137.5q27 -35 50.5 -65.5t39.5 -52.5q21 -28 37 -48l-117 -120q-12 18 -28 41q-14 20 -31.5 45.5t-40.5 58.5q-68 -78 -155 -110.5t-183 -24.5 q-66 4 -123 32.5t-95 82t-49 133zM163 296q5 -42 27 -77q20 -33 52 -51t71 -19.5t80 16t80 54.5q10 10 18.5 21.5t16.5 23.5q-35 49 -68.5 99.5t-64.5 95.5t-58 83.5t-45 65.5q-14 -18 -26.5 -36.5t-22.5 -34.5q-20 -33 -35.5 -73t-22.5 -83t-2 -85zM256 963q10 -72 39 -136 q47 61 84 127t53 140q14 76 14 121t-8 67.5t-21.5 29.5t-21.5 11q-10 2 -26.5 1t-37 -18.5t-39 -58.5t-30.5 -114q-16 -98 -6 -170z" />
<glyph unicode="'" horiz-adv-x="303" d="M10 1090q39 20 62 36t39 39q20 37 24 68q2 16 0 31h-106v180l211 2v-76q0 -29 1 -55.5t1 -32.5q-2 -14 -2 -22.5t-4 -18.5q-8 -18 -22.5 -42.5t-43.5 -47.5q-29 -20 -56.5 -32.5t-50.5 -18.5q-27 -8 -53 -10z" />
<glyph unicode="(" horiz-adv-x="436" d="M2 684q0 100 12.5 213t37 224.5t59 215t79.5 185.5q29 -10 55.5 -20.5t47.5 -16.5q23 -8 41 -15q-43 -90 -75 -189t-53.5 -202.5t-31.5 -206t-10 -196.5q0 -184 36 -381t115 -401q-31 -8 -57.5 -16.5t-44.5 -14.5q-23 -8 -41 -17q-90 199 -130 414t-40 424z" />
<glyph unicode=")" horiz-adv-x="419" d="M-2 1487q16 6 37 14q16 6 40.5 16.5t57.5 20.5q45 -82 79 -185.5t57.5 -214t35.5 -223t12 -210.5q0 -213 -42 -441.5t-132 -433.5q-16 4 -39 12q-18 6 -44.5 13.5t-57.5 17.5q37 98 66.5 205.5t49 215t30 212t10.5 199.5q0 193 -37 397.5t-123 384.5z" />
<glyph unicode="*" horiz-adv-x="772" d="M6 1126l270 93l-167 204l71 66l160 -168l66 223l126 -47l-90 -223l176 59l37 -61l-196 -76l211 -221l-117 -94l-180 221l-94 -230l-66 27l68 225l-252 -98z" />
<glyph unicode="+" horiz-adv-x="718" d="M-2 760l209 18l-12 242h196l2 -225l211 18l12 -203l-221 -8l4 -213l-170 -4l-12 213l-203 -6z" />
<glyph unicode="," horiz-adv-x="319" d="M0 -127q39 20 62.5 36.5t39.5 39.5q12 18 18.5 36.5t8.5 32.5q2 16 0 33l-111 -2l-2 187l222 2v-78q0 -29 1 -56.5t1 -33.5q0 -23 -7 -41q-8 -20 -23 -45t-46 -47q-29 -23 -58.5 -35.5t-52.5 -18.5q-29 -8 -53 -10z" />
<glyph unicode="-" horiz-adv-x="475" d="M-10 602h399l-22 -192l-367 -7z" />
<glyph unicode="." horiz-adv-x="376" d="M0 88q0 51 31 80t78 29q49 0 78.5 -30t27.5 -77q0 -57 -28.5 -85t-77.5 -28q-53 0 -81 32t-28 79z" />
<glyph unicode="/" horiz-adv-x="376" d="M-57 -94l239 1650l166 -4l-264 -1656z" />
<glyph unicode="0" horiz-adv-x="630" d="M0 193q-2 23 1 97.5t7 175.5t10.5 216t11.5 220.5t11 187t10 116.5q6 49 19.5 89t43 68t76 43t115.5 15q74 0 115 -20.5t61.5 -52t26.5 -67t10 -64.5q2 -20 4 -89t3 -163.5t2 -205t1 -214t-1 -190.5t-1 -136q0 -72 -12 -116t-31.5 -69.5t-45 -36.5t-56.5 -17 q-25 -4 -57.5 -6.5t-69.5 -1.5t-73 6.5t-66 17.5q-63 29 -87 75t-28 122zM158 231q0 -23 3 -45t15 -40.5t36 -30t67 -11.5q12 0 29.5 1t34.5 10.5t30.5 31t15.5 64.5v106.5v180v215t-1 211t-2 169t-1 87.5q-2 25 -4 48t-11.5 40.5t-28.5 29t-52 11.5q-66 0 -84.5 -31 t-22.5 -88q-2 -18 -4 -91t-5 -174.5t-6 -217t-5 -216t-3 -173t-1 -87.5z" />
<glyph unicode="1" horiz-adv-x="376" d="M2 1202l125 209h145q-2 0 -4 -61.5t-5 -163t-7 -229.5t-6 -263q-8 -315 -17 -714l-165 4l47 1220z" />
<glyph unicode="2" horiz-adv-x="907" d="M2 -12q160 254 289 465q55 88 109.5 177t100.5 162.5t76.5 127t40.5 71.5q18 37 26.5 76t8.5 73t-4 61.5t-6 41.5q-4 31 -21.5 38t-39.5 9q-10 0 -41 1t-68 1t-70.5 -1t-48.5 -3q-29 -4 -41 -19.5t-12 -27.5q0 -6 1 -50t5 -93q2 -57 6 -129l-223 -4q-2 59 0 98t8 67.5 t16.5 52t26.5 52.5q45 82 130 128t233 46q82 0 136 -6t88 -23.5t50.5 -45t20.5 -66.5q4 -51 5 -85t-1 -67q-2 -70 -25.5 -126t-52.5 -109t-64.5 -114.5t-74.5 -127.5t-80 -131.5t-78 -126.5q-90 -143 -184 -291l491 29l-2 -117z" />
<glyph unicode="3" horiz-adv-x="868" d="M2 283l268 8v-187h111q43 0 81 -1t48 1q16 2 35.5 12.5t21.5 45.5q0 12 1 39.5t1 66.5v84v90q0 106 -2 234l-428 -14l420 595l-545 -18l-8 121q125 6 260 12q117 4 260.5 6t284.5 0l-389 -594q33 2 65 2h60t53 -2q45 -4 81 -36.5t44 -102.5q2 -20 4 -54t4 -74t2 -81v-78 q-2 -78 -4 -140t-16 -116q-8 -29 -32 -53t-71 -43q-37 -16 -92 -20t-114 -4q-39 0 -84.5 5t-88.5 17t-80.5 33.5t-62.5 56.5q-27 35 -43 69t-27 60q-12 31 -18 60z" />
<glyph unicode="4" horiz-adv-x="735" d="M2 440l311 959l273 18l-13 -885h60l-2 -90h-56l15 -477l-182 4l12 469zM195 528l229 7l12 790z" />
<glyph unicode="5" horiz-adv-x="622" d="M-2 254l207 10l-2 -166h49q20 0 38.5 1t28.5 1q16 0 29.5 17.5t11.5 48.5q0 8 -1 33.5t-1 63.5v84v93v246l-313 -4l-16 713l485 24l2 -100l-311 -16l16 -504h49h43t39 -4q35 -4 67 -16.5t48 -30.5q12 -12 20.5 -24.5t14.5 -30t9 -44t7 -69.5q2 -25 1 -86.5t-2 -127 t-3 -121t-2 -63.5q-2 -43 -16.5 -78.5t-44.5 -60.5q-37 -29 -84.5 -45t-141.5 -18q-76 -2 -108.5 9t-55.5 25t-37 45t-18 62q-2 16 -3 37.5t-3 44.5q-2 24 -2 51z" />
<glyph unicode="6" horiz-adv-x="690" d="M-4 250q0 76 2 158q2 55 6 127.5t9 152.5t11.5 162t13.5 156.5t13 135t10 99.5q14 115 85 155t161 34q92 -8 150.5 -33t91.5 -103q14 -35 21.5 -66.5t11.5 -53.5q4 -27 4 -52l-199 17v26v56q-4 47 -23.5 71.5t-72.5 26.5q-41 0 -58.5 -26.5t-23.5 -55.5q-2 -10 -5 -38 t-6 -65.5t-7.5 -83.5t-6.5 -92q-8 -109 -16 -237q16 29 47 47q27 16 70 24.5t108 -8.5q66 -14 96.5 -54t42 -83t9.5 -80t-2 -45q0 -10 -1 -39.5t-5.5 -75t-11.5 -99.5t-19 -111t-31.5 -102.5t-54.5 -76t-88.5 -43t-132.5 -4.5q-80 8 -122 47t-59.5 97.5t-17.5 134.5z M141 180q-4 -53 17.5 -83.5t79.5 -35.5q53 -4 76.5 27t27.5 70q2 25 9 78t13.5 115.5t11.5 123t5 96.5q0 125 -121 115q-49 -4 -71.5 -40t-24.5 -62q-2 -29 -6 -86.5t-7.5 -120t-6.5 -117.5t-3 -80z" />
<glyph unicode="7" horiz-adv-x="628" d="M-2 1378l528 27l-258 -1415l-184 4l266 1300l-350 -16z" />
<glyph unicode="8" horiz-adv-x="659" d="M1 285.5q1 52.5 4 101.5t6 92t7 74q8 96 72 160q16 16 35 28q-6 4 -10 9q-27 23 -38 56.5t-14 80.5q-2 41 0.5 92t5.5 101t6 94.5t7 70.5q8 80 59.5 127t161.5 55q115 8 172 -31.5t66 -135.5q2 -27 2 -79.5t-1 -111.5t-4 -115.5t-6 -93.5q-4 -72 -53 -112q-4 -2 -8 -5 q8 -6 14 -12q70 -65 72 -174v-82q0 -49 -2 -105.5t-4 -109.5t-6 -90q-4 -43 -17.5 -79t-41 -61.5t-72.5 -41t-113 -15.5q-141 -2 -218 51.5t-81 161.5q-2 47 -1 99.5zM162 219q2 -57 34.5 -77.5t88.5 -24.5q59 -4 82.5 27.5t27.5 74.5q2 25 3 79t1 113.5t-1 110.5t-1 74 q0 100 -108 104q-51 0 -76 -30.5t-29 -67.5q-2 -23 -6 -72t-8 -107t-7 -114.5t-1 -89.5zM213 918q2 -47 24.5 -62.5t69.5 -17.5q84 0 86 84q2 25 3 67.5t3 88.5t2 85v60q0 41 -20.5 67.5t-63.5 26.5q-41 0 -63.5 -24.5t-26.5 -55.5q-2 -18 -5 -59t-5 -90.5t-4 -96.5t0 -73z " />
<glyph unicode="9" horiz-adv-x="694" d="M2 262l213 12q2 -29 4 -51q2 -20 4 -41.5t6 -31.5q16 -59 74 -60q41 2 53.5 28.5t16.5 76.5q4 39 11 118.5t13 159.5q8 94 15 199q-12 -16 -29 -29q-16 -10 -37.5 -20.5t-52.5 -12.5q-47 -4 -105.5 10.5t-99.5 71.5q-37 53 -39 117.5t4 132.5q10 90 22.5 182.5 t28.5 153.5t60.5 102t130.5 47q43 2 97 1t100.5 -27.5t75 -89t22.5 -178.5q-6 -117 -13.5 -241t-13.5 -234.5t-12 -198.5t-10 -133q-6 -45 -13.5 -103.5t-27 -112t-56 -92t-102.5 -47.5q-66 -6 -125 6.5t-105 48t-75 94t-35 142.5zM209 831q-4 -123 117 -116q49 4 71.5 38.5 t26.5 63.5q2 27 7 84t9 119.5t7.5 118t5.5 78.5q4 53 -16.5 85.5t-78.5 36.5q-53 4 -77.5 -26.5t-28.5 -69.5q-4 -25 -11.5 -78t-13.5 -115.5t-12 -122t-6 -96.5z" />
<glyph unicode=":" horiz-adv-x="305" d="M0 90q0 53 31 82t78 29q51 0 79.5 -31t28.5 -78q0 -57 -29.5 -86t-78.5 -29q-53 0 -81 33t-28 80zM4 958q0 53 31 82t78 29q51 0 80.5 -30.5t27.5 -77.5q0 -59 -29.5 -87t-78.5 -28q-53 0 -81 32.5t-28 79.5z" />
<glyph unicode=";" horiz-adv-x="299" d="M-4 -127q39 20 62.5 36.5t39.5 39.5q12 18 18.5 36.5t8.5 32.5q2 16 0 33l-111 -2l-2 187l221 2v-78q0 -29 1.5 -56.5t1.5 -33.5q0 -23 -7 -41q-8 -20 -23.5 -45t-45.5 -47q-29 -23 -58.5 -35.5t-52.5 -18.5q-29 -8 -53 -10zM16 944q0 53 31 82t78 29q49 0 78.5 -31 t29.5 -78q0 -57 -29.5 -84.5t-78.5 -27.5q-53 0 -81 31.5t-28 78.5z" />
<glyph unicode="&#x3c;" horiz-adv-x="911" d="M-6 791l733 438l82 -189l-627 -254l500 -364l-66 -148z" />
<glyph unicode="=" horiz-adv-x="575" d="M6 602l463 6v-202l-453 -3zM10 885l463 6l-10 -193l-451 2z" />
<glyph unicode="&#x3e;" horiz-adv-x="940" d="M2 1061l94 184l742 -454l-631 -541l-66 139l496 397z" />
<glyph unicode="?" horiz-adv-x="704" d="M0 1092v145q2 39 22.5 77t77.5 75q27 18 60 28t66.5 14.5t66.5 5.5t59 1q53 0 95 -5.5t83 -25.5q41 -23 56.5 -45.5t15.5 -50.5q0 -16 -1 -75.5t-1 -132.5t-1 -139.5t-1 -97.5q0 -61 -21.5 -83.5t-50.5 -39.5q-14 -10 -38.5 -22t-49.5 -25l-61 -30l4 -392l-203 -4 q2 72 4 133q2 53 2 104.5t2 78.5q4 106 78 157q18 12 41 26.5t45 27.5q25 14 51 30v500h-18q-10 0 -24.5 1t-36.5 1q-47 2 -64.5 -4t-38.5 -20q-23 -12 -32 -37t-9 -49q0 -14 -1 -35t-1 -41v-51h-176zM180 88q0 51 30 80t77 29q51 0 79.5 -30t28.5 -77q0 -57 -29.5 -85 t-78.5 -28q-53 0 -80 32t-27 79z" />
<glyph unicode="@" horiz-adv-x="1292" d="M41 234q0 90 2 188t5 196.5t6 182.5t6 145.5t3 83.5q0 35 9.5 83t34 93t70.5 80t120 41t161 8t170 0t155.5 -7t117.5 -11t88 -16.5t78 -36t59.5 -75.5t30.5 -138q6 -98 12.5 -216t11.5 -225.5t7 -188.5t0 -106q-4 -33 -11.5 -72.5t-29 -75.5t-60 -60.5t-104.5 -26.5 q-39 0 -71.5 6t-60.5 24.5t-52.5 52.5t-44.5 87q-20 -33 -56 -57.5t-96 -28.5q-129 -8 -195.5 90t-82.5 328q-8 119 -3 202.5t25.5 139t59 85t100.5 40.5q72 12 119 -5.5t75 -52.5q-2 16 -3 29.5t-1 23.5v21l150 -2q10 -156 18 -291q4 -57 7 -115.5t6.5 -110.5t6.5 -93 t5 -64q2 -29 5 -58.5t10 -54t23.5 -42t45.5 -17.5q27 0 42 11.5t22 31t8.5 45t1.5 53.5q0 35 -2.5 89.5t-5.5 118t-8 131t-9 127t-7 106.5t-5 71q-4 39 -6.5 68t-17.5 49.5t-51 32.5t-106 18q-158 14 -279.5 12.5t-166.5 -3.5q-23 -2 -49.5 -7.5t-49 -19.5t-39 -43 t-18.5 -76q-4 -39 -6 -113.5t-4 -167t-4 -189.5t-3 -182t-2 -144.5t-1 -75.5t1 -41t13 -49.5t41 -44t82 -21.5q27 -2 74 -2t105.5 2t123 4t129.5 4q150 6 324 13l-6 -154q-195 -6 -353 -10q-68 -2 -134 -3t-122.5 -3t-97.5 -2h-55q-29 0 -77 2t-94 21.5t-81 65.5t-37 136 q-2 66 -2 156zM470 731q1 -57 3 -125t12.5 -124t26.5 -97t41.5 -63.5t62.5 -18.5q39 4 61.5 23.5t33 60.5t10.5 106.5t-6 159.5q-4 63 -12.5 115.5t-24.5 89.5t-44 56.5t-71 15.5q-39 -4 -59.5 -30t-27.5 -69t-6 -100z" />
<glyph unicode="A" d="M-2 12l244 1420l247 -5l234 -1404l-156 -21l-78 449l-260 -2l-65 -426zM258 553l211 2l-119 735z" />
<glyph unicode="B" horiz-adv-x="641" d="M-4 2l43 1423q57 2 108 2h150q23 0 51.5 -4t56 -12t50 -22.5t32.5 -32.5q12 -25 18.5 -51.5t8.5 -52t2 -48v-37.5v-63t-2 -105.5t-5 -107.5t-5 -72q-6 -43 -16.5 -64.5t-28.5 -43.5q-10 -10 -29.5 -23.5t-43.5 -25t-45.5 -20.5t-33.5 -11q12 -2 25 -2q10 0 22.5 -1 t26.5 -1q66 -6 108 -42t46 -91q2 -18 1.5 -58.5t-0.5 -83.5t-0.5 -82t-3.5 -53q-2 -16 -4 -37.5t-7 -44t-15 -43t-27 -35.5q-18 -14 -43.5 -23t-54.5 -15.5t-56.5 -10.5t-48.5 -4q-20 -2 -66 -2h-93h-121zM168 90h41h39.5t42.5 2q35 2 57.5 28.5t32.5 61.5q6 18 9 62.5 t4 93.5v47.5v45.5q-1 44 -3 63q-8 35 -34.5 59.5t-67.5 26.5q-10 0 -27.5 1t-34.5 1q-20 0 -43 2zM197 1364l2 -692q12 0 28 6q12 4 29.5 11t34.5 22q35 29 49 59.5t18 69.5q2 12 2 67.5v121t-1 128t-1 88.5q-2 53 -35.5 86t-64.5 33h-61z" />
<glyph unicode="C" horiz-adv-x="679" d="M2 772q2 119 7 212t14.5 164t21.5 121t31 85q18 35 50 52q32 18 68 24q32 6 65 5h10q38 -1 69 -3q80 -8 139.5 -27t87.5 -59q14 -20 20.5 -60.5t9.5 -84.5t3 -83v-55l-158 14q-2 31 -2 60q0 25 -1 48t-1 40q0 25 -19.5 43t-46 30.5t-54 17.5t-44.5 5q-76 0 -88 -121 q-2 -25 -4 -73t-5 -108.5t-6 -129t-5 -131t-3 -113.5t-3 -80v-94t2 -124.5t4 -115t2 -63.5q4 -31 25.5 -52.5t68.5 -21.5q49 0 74.5 14.5t34.5 55.5q4 20 6 52t2 63v73l186 2q-2 -66 -10 -121q-8 -47 -23.5 -95t-42.5 -72q-29 -25 -50 -38.5t-45.5 -20.5t-57.5 -8h-24 q-25 0 -56 1q-47 2 -85 19.5t-65.5 45t-45 59.5t-25.5 60q-13 58 -23 202q-8 119 -8 305v81z" />
<glyph unicode="D" horiz-adv-x="659" d="M4 115v107.5t2 101.5q0 33 2 97t4 148t5 181.5t6 193.5q6 225 10 494q31 2 65 2h129q76 -4 131.5 -38t98.5 -89q47 -59 63.5 -127t20.5 -146q2 -55 3 -147v-93.5v-95.5q-1 -98 -5 -183t-11 -126q-6 -57 -15 -108t-26 -101q-12 -33 -35.5 -61.5t-55 -51t-68.5 -39 t-74 -22.5q-41 -8 -84 -11t-80 -5q-43 -2 -84 -2q-2 61 -2 121zM166 154h35q14 0 29.5 1t27.5 3q25 4 43 17t35 30q14 18 24.5 47t16.5 53q4 18 10 62.5t12.5 98.5t11.5 112.5t7 107.5q2 45 2 103.5t-1 115t-3 103.5t-6 69q-10 59 -30 112.5t-36 82.5q-10 20 -25.5 30.5 t-35.5 14.5q-16 4 -47 4h-33z" />
<glyph unicode="E" horiz-adv-x="557" d="M-20 4l59 1430l455 -7l2 -90h-293l-10 -735h159l2 -110h-166l-4 -383l254 -3l-2 -104z" />
<glyph unicode="F" horiz-adv-x="618" d="M-12 0l57 1413l522 19v-109l-346 -29l-26 -729l180 2l10 -98l-190 -4l-37 -465h-170z" />
<glyph unicode="G" horiz-adv-x="663" d="M0 145q0 10 2 59.5t6 124t9.5 168t11.5 190.5t12 191.5t11 172t8 131t3 67.5q2 57 34 92t69 58q35 23 88 33q38 7 76 7l30 -1q27 -4 62 -10.5t65 -12.5l74 -16l-2 -291l-162 -2v244l-20 8t-22.5 6t-28.5 0q-31 -4 -50.5 -24.5t-33.5 -73.5q-4 -16 -10.5 -69.5 t-11.5 -124.5t-11 -150.5t-10 -151.5t-8.5 -126t-4.5 -75q-2 -31 -4 -86t-3 -113.5t-1 -107.5v-65q0 -33 9.5 -53.5t50.5 -24.5q22 -2 43 -2t41 2q23 2 43 4l32 268l-96 -8l2 90l250 2l-16 -452q-74 -6 -140 -11q-57 -4 -113.5 -6t-90.5 -2q-66 0 -101 2t-57 29 q-23 29 -28 50t-7 60z" />
<glyph unicode="H" horiz-adv-x="665" d="M6 -4l39 1440l164 -25l-21 -852l174 -2l29 856l164 27l-14 -1417l-187 -29l6 450l-170 13l-10 -455z" />
<glyph unicode="I" horiz-adv-x="305" d="M6 -2l19 1429l145 15l-10 -1432z" />
<glyph unicode="J" horiz-adv-x="690" d="M6 377l234 4v-279h47q18 0 34.5 -1t24.5 1q16 4 38 14.5t26 55.5q0 10 1 69.5t2 149.5t2 203t1 227v609l172 -3q-2 -299 -6 -546q-2 -104 -3 -209t-3.5 -191t-3.5 -147.5t-3 -81.5q-6 -78 -21.5 -121t-60.5 -76q-39 -27 -78.5 -39t-95.5 -12q-29 0 -63 -1h-11l-55 4 q-34 5 -64 19.5t-48 43.5t-30.5 70.5t-20 84.5t-11.5 83t-4 69z" />
<glyph unicode="K" horiz-adv-x="722" d="M-2 2l76 1428h166l-47 -707l350 682l129 -2l-383 -694l317 -691l-186 -16l-227 504l6 -490z" />
<glyph unicode="L" horiz-adv-x="555" d="M8 6l29 1419l174 -2l-29 -1327h271v-102z" />
<glyph unicode="M" d="M-2 -4l61 1431l154 3l143 -838l211 846l144 -8l-31 -1426l-154 -2l27 989l-145 -585l-125 22l-90 379l-25 -809z" />
<glyph unicode="N" horiz-adv-x="706" d="M2 20l25 1405l145 2l244 -927l30 930h146l-14 -1420l-152 -4l-246 813l8 -796z" />
<glyph unicode="O" horiz-adv-x="653" d="M10 279q0 23 1 94t2 152t3 150.5t4 92.5q4 61 10.5 133t12.5 139.5t12 122t11 76.5q6 47 17 73.5t21 43.5q18 25 62.5 50.5t101.5 27.5h26q54 0 94 -6q50 -8 87 -37q39 -31 56.5 -70t19.5 -86v-69.5t-1 -137.5t-3 -171t-4 -172t-3 -141.5t-1 -78.5q0 -23 -1 -55.5 t-3.5 -68.5t-6.5 -72t-10 -64q-14 -70 -46 -115t-52 -61q-18 -17 -49 -27q-26 -9 -68 -8h-16q-29 0 -45.5 1t-27.5 1h-20.5t-21.5 2q-51 4 -77.5 24.5t-43.5 55.5q-16 33 -26.5 83t-14.5 118zM164 172v-15q0 -27 6 -44q14 -39 53 -43h74q31 2 46 14t26 29q16 20 20 41.5 t6 58.5q0 8 1 87t1 192.5t1 245.5t1 247v195v92q-2 29 -16 37t-43 10q-6 0 -29.5 1t-46.5 1t-29 -9t-8 -32q0 -2 -4 -80t-11 -192.5t-14.5 -248.5t-14.5 -250t-11 -194.5t-4 -83.5q-2 -23 -4 -59z" />
<glyph unicode="P" horiz-adv-x="581" d="M-4 -6l45 1433q78 2 145 5q39 1 78 1h40q58 -1 91 -3t51.5 -13.5t28.5 -27t12 -31.5l7 -25q0 -6 1 -35.5t1 -72.5v-191q0 -47 -1 -83t-1 -50q-2 -45 -9.5 -118.5t-27.5 -135.5q-41 -121 -142 -145l-57 -15q-33 -8 -63 -14l-39 -8l-11 -469zM158 541q21 4 39 6 q29 4 56.5 8t41.5 8q20 6 30.5 35t18.5 88q4 39 7 76t5 82v135q0 47 -1 99t-2 98.5t-1 80.5v46q0 14 -8 25t-18.5 17.5t-20.5 9.5t-14 3h-23q-18 0 -39 2q-23 0 -53 2z" />
<glyph unicode="Q" horiz-adv-x="653" d="M-2 199v120.5t1 172t1 168v108.5q0 59 3 130t6 136.5t6 117.5t5 73q4 47 32 92t63 72q41 33 91 40t85 7q33 0 81 -9.5t89 -44.5q39 -35 63.5 -77.5t26.5 -108.5v-71.5t-1 -140.5t-2 -174t-3 -174t-3 -140.5t-3 -71.5q-10 -109 -33 -166t-41 -102q-4 -8 -7 -16.5t-9 -16.5 l65 -84l-57 -57l-54 75q-23 -23 -50 -39t-62 -20q-35 -3 -64.5 -3t-53.5 3q-48 6 -101 29q-27 12 -41.5 24t-21.5 31.5t-9 47.5t-2 69zM164 228q0 -42 2 -56q4 -45 22 -76q16 -28 53 -28h5q33 4 51 32.5t29 69.5l-90 129l65 49l45 -78q10 66 17.5 154t9.5 172q0 14 1 63.5 t1 116t1 142t1 144v120v69.5q0 31 -10.5 49.5t-24.5 27.5t-30 10h-11q-10 0 -18 -1q-41 -8 -70 -44t-31 -95q0 -12 -1 -49t-3 -87t-3 -105.5t-3 -105.5t-3 -88t-1 -50t-1 -54.5t-2 -96.5t-1 -116.5v-119v-98.5z" />
<glyph unicode="R" horiz-adv-x="675" d="M2 27l45 1403q88 2 168 2q66 0 132.5 -1t96.5 -6q63 -10 91 -39.5t38 -85.5q9 -54 15 -158q2 -37 2 -76q0 -70 -6 -146q-6 -59 -22.5 -112.5t-36 -96.5t-40 -75t-34.5 -48q-25 -27 -66 -57.5t-92 -47.5q14 -23 43 -67.5t57 -91.5q18 -29 46 -74t53 -88q29 -51 61 -105 l-133 -2l-213 414h-17q-4 0 -6 2l-4 -469zM180 539h9q14 0 32 4t43 16t51 35q51 47 69 91t22 79q2 14 3 57t3 98.5t3 117t2 113.5t1 88v42q0 23 -12.5 39t-43.5 20q-10 0 -34.5 1t-53.5 1q-33 0 -69 2z" />
<glyph unicode="S" horiz-adv-x="638" d="M0 254l135 20q4 -16 10 -34q4 -16 11.5 -34t15.5 -32q28 -45 57 -45q6 0 11 2q29 10 27.5 51t-13.5 94q-4 16 -14.5 65.5t-25.5 117t-32.5 144.5t-34 150.5t-31 137t-22.5 100.5q-12 55 -17 109q-2 24 -2 47q0 28 3 55q6 49 26.5 93t63.5 81q41 34 89 48q37 10 73 11 q11 0 21 -1q46 -4 85 -23.5t62 -46.5q23 -29 38 -63.5t25 -67.5q12 -37 21 -76l-123 -18q-4 12 -8 28q-4 14 -9.5 35t-15.5 45q-12 39 -46 53q-24 10 -48 11q-10 0 -20 -2q-34 -6 -58 -34q-23 -26 -23 -66v-7q4 -86 28 -184t58 -223q18 -70 42 -158t43.5 -174t31.5 -160 q8 -49 8 -85q0 -18 -2 -32q-10 -78 -41.5 -127t-113.5 -57q-14 -1 -27 -1q-36 0 -66 8q-40 11 -73 41t-60.5 80t-58.5 124z" />
<glyph unicode="T" horiz-adv-x="589" d="M-4 1329l4 90l508 17l-4 -99l-185 -4l-32 -1325l-197 -12l57 1335z" />
<glyph unicode="U" horiz-adv-x="716" d="M20 376.5q0 61.5 2.5 127t4.5 123.5q0 20 2 65t5 106.5t7 132t8 142.5q9 168 19 367l192 -6q-18 -236 -35 -426q-6 -82 -13 -162t-12 -145.5t-9.5 -110.5t-6.5 -58q-4 -27 -8 -83t-8 -117.5t-8 -112.5t-4 -65q-2 -18 4 -26.5t26 -8.5q31 -4 57.5 -3t39.5 1q18 0 28.5 7 t14.5 32q2 10 7 53t12 104.5t14.5 133t15.5 139t14 123t10 84.5q2 20 7.5 58t9.5 86t9 101.5t11 106.5q10 123 25 266l182 -10q-20 -176 -37 -320q-6 -61 -14 -121.5t-14.5 -109.5t-10.5 -84t-4 -45q-2 -20 -10 -79.5t-19.5 -127.5t-20.5 -130t-15 -89q-12 -63 -32 -114.5 t-34 -74.5t-32.5 -45t-65.5 -43q-41 -16 -75 -20q-23 -3 -42 -3q-10 0 -18 1q-33 0 -74 5t-64 34q-29 37 -30.5 72.5t-5.5 76.5q-2 29 -3.5 80t-1.5 112.5z" />
<glyph unicode="V" horiz-adv-x="739" d="M2 1442h170l109 -1080l241 1074l115 10l-332 -1444l-119 -10z" />
<glyph unicode="W" horiz-adv-x="806" d="M2 1438l170 8l37 -895l82 274l88 4l119 -456l63 1034l144 -4l-66 -1344l-145 -14l-156 502l-94 -516l-135 -29z" />
<glyph unicode="X" horiz-adv-x="655" d="M-115 -23l279 668l-115 789l150 8l73 -531l205 551l127 8l-311 -772l131 -688l-182 -10l-70 422l-160 -459z" />
<glyph unicode="Y" horiz-adv-x="548" d="M-16 1421l118 11l86 -701l179 690l116 2l-221 -766l-20 -645h-183l60 580z" />
<glyph unicode="Z" horiz-adv-x="710" d="M-59 12l528 1334l-401 -13l8 86l571 6l-485 -1337l266 2l8 -82z" />
<glyph unicode="[" horiz-adv-x="385" d="M0 -145v1656h266v-137l-114 4v-1382l131 -10l-4 -131h-279z" />
<glyph unicode="\" horiz-adv-x="501" d="M-8 1556l166 -2l241 -1656l-141 6z" />
<glyph unicode="]" horiz-adv-x="387" d="M2 1389v133h283v-1659h-267l-4 139l117 -4v1382z" />
<glyph unicode="^" horiz-adv-x="1056" d="M4 807l547 631l403 -676l-145 -39l-272 532l-342 -546z" />
<glyph unicode="_" horiz-adv-x="770" d="M0 123l668 6l-2 -199l-658 -8z" />
<glyph unicode="`" horiz-adv-x="372" d="M-10 1473l96 133l248 -203l-68 -92z" />
<glyph unicode="a" d="M-2 12l244 1420l247 -5l234 -1404l-156 -21l-78 449l-260 -2l-65 -426zM258 553l211 2l-119 735z" />
<glyph unicode="b" horiz-adv-x="641" d="M-4 2l43 1423q57 2 108 2h150q23 0 51.5 -4t56 -12t50 -22.5t32.5 -32.5q12 -25 18.5 -51.5t8.5 -52t2 -48v-37.5v-63t-2 -105.5t-5 -107.5t-5 -72q-6 -43 -16.5 -64.5t-28.5 -43.5q-10 -10 -29.5 -23.5t-43.5 -25t-45.5 -20.5t-33.5 -11q12 -2 25 -2q10 0 22.5 -1 t26.5 -1q66 -6 108 -42t46 -91q2 -18 1.5 -58.5t-0.5 -83.5t-0.5 -82t-3.5 -53q-2 -16 -4 -37.5t-7 -44t-15 -43t-27 -35.5q-18 -14 -43.5 -23t-54.5 -15.5t-56.5 -10.5t-48.5 -4q-20 -2 -66 -2h-93h-121zM168 90h41h39.5t42.5 2q35 2 57.5 28.5t32.5 61.5q6 18 9 62.5 t4 93.5v47.5v45.5q-1 44 -3 63q-8 35 -34.5 59.5t-67.5 26.5q-10 0 -27.5 1t-34.5 1q-20 0 -43 2zM197 1364l2 -692q12 0 28 6q12 4 29.5 11t34.5 22q35 29 49 59.5t18 69.5q2 12 2 67.5v121t-1 128t-1 88.5q-2 53 -35.5 86t-64.5 33h-61z" />
<glyph unicode="c" horiz-adv-x="679" d="M2 772q2 119 7 212t14.5 164t21.5 121t31 85q18 35 50 52q32 18 68 24q32 6 65 5h10q38 -1 69 -3q80 -8 139.5 -27t87.5 -59q14 -20 20.5 -60.5t9.5 -84.5t3 -83v-55l-158 14q-2 31 -2 60q0 25 -1 48t-1 40q0 25 -19.5 43t-46 30.5t-54 17.5t-44.5 5q-76 0 -88 -121 q-2 -25 -4 -73t-5 -108.5t-6 -129t-5 -131t-3 -113.5t-3 -80v-94t2 -124.5t4 -115t2 -63.5q4 -31 25.5 -52.5t68.5 -21.5q49 0 74.5 14.5t34.5 55.5q4 20 6 52t2 63v73l186 2q-2 -66 -10 -121q-8 -47 -23.5 -95t-42.5 -72q-29 -25 -50 -38.5t-45.5 -20.5t-57.5 -8h-24 q-25 0 -56 1q-47 2 -85 19.5t-65.5 45t-45 59.5t-25.5 60q-13 58 -23 202q-8 119 -8 305v81z" />
<glyph unicode="d" horiz-adv-x="659" d="M4 115v107.5t2 101.5q0 33 2 97t4 148t5 181.5t6 193.5q6 225 10 494q31 2 65 2h129q76 -4 131.5 -38t98.5 -89q47 -59 63.5 -127t20.5 -146q2 -55 3 -147v-93.5v-95.5q-1 -98 -5 -183t-11 -126q-6 -57 -15 -108t-26 -101q-12 -33 -35.5 -61.5t-55 -51t-68.5 -39 t-74 -22.5q-41 -8 -84 -11t-80 -5q-43 -2 -84 -2q-2 61 -2 121zM166 154h35q14 0 29.5 1t27.5 3q25 4 43 17t35 30q14 18 24.5 47t16.5 53q4 18 10 62.5t12.5 98.5t11.5 112.5t7 107.5q2 45 2 103.5t-1 115t-3 103.5t-6 69q-10 59 -30 112.5t-36 82.5q-10 20 -25.5 30.5 t-35.5 14.5q-16 4 -47 4h-33z" />
<glyph unicode="e" horiz-adv-x="557" d="M-20 4l59 1430l455 -7l2 -90h-293l-10 -735h159l2 -110h-166l-4 -383l254 -3l-2 -104z" />
<glyph unicode="f" horiz-adv-x="618" d="M-12 0l57 1413l522 19v-109l-346 -29l-26 -729l180 2l10 -98l-190 -4l-37 -465h-170z" />
<glyph unicode="g" horiz-adv-x="663" d="M0 145q0 10 2 59.5t6 124t9.5 168t11.5 190.5t12 191.5t11 172t8 131t3 67.5q2 57 34 92t69 58q35 23 88 33q38 7 76 7l30 -1q27 -4 62 -10.5t65 -12.5l74 -16l-2 -291l-162 -2v244l-20 8t-22.5 6t-28.5 0q-31 -4 -50.5 -24.5t-33.5 -73.5q-4 -16 -10.5 -69.5 t-11.5 -124.5t-11 -150.5t-10 -151.5t-8.5 -126t-4.5 -75q-2 -31 -4 -86t-3 -113.5t-1 -107.5v-65q0 -33 9.5 -53.5t50.5 -24.5q22 -2 43 -2t41 2q23 2 43 4l32 268l-96 -8l2 90l250 2l-16 -452q-74 -6 -140 -11q-57 -4 -113.5 -6t-90.5 -2q-66 0 -101 2t-57 29 q-23 29 -28 50t-7 60z" />
<glyph unicode="h" horiz-adv-x="665" d="M6 -4l39 1440l164 -25l-21 -852l174 -2l29 856l164 27l-14 -1417l-187 -29l6 450l-170 13l-10 -455z" />
<glyph unicode="i" horiz-adv-x="327" d="M29 -2l18 1429l146 15l-11 -1432z" />
<glyph unicode="j" horiz-adv-x="690" d="M6 377l234 4v-279h47q18 0 34.5 -1t24.5 1q16 4 38 14.5t26 55.5q0 10 1 69.5t2 149.5t2 203t1 227v609l172 -3q-2 -299 -6 -546q-2 -104 -3 -209t-3.5 -191t-3.5 -147.5t-3 -81.5q-6 -78 -21.5 -121t-60.5 -76q-39 -27 -78.5 -39t-95.5 -12q-29 0 -63 -1h-11l-55 4 q-34 5 -64 19.5t-48 43.5t-30.5 70.5t-20 84.5t-11.5 83t-4 69z" />
<glyph unicode="k" horiz-adv-x="722" d="M-2 2l76 1428h166l-47 -707l350 682l129 -2l-383 -694l317 -691l-186 -16l-227 504l6 -490z" />
<glyph unicode="l" horiz-adv-x="555" d="M8 6l29 1419l174 -2l-29 -1327h271v-102z" />
<glyph unicode="m" d="M-2 -4l61 1431l154 3l143 -838l211 846l144 -8l-31 -1426l-154 -2l27 989l-145 -585l-125 22l-90 379l-25 -809z" />
<glyph unicode="n" horiz-adv-x="706" d="M2 20l25 1405l145 2l244 -927l30 930h146l-14 -1420l-152 -4l-246 813l8 -796z" />
<glyph unicode="o" horiz-adv-x="653" d="M10 279q0 23 1 94t2 152t3 150.5t4 92.5q4 61 10.5 133t12.5 139.5t12 122t11 76.5q6 47 17 73.5t21 43.5q18 25 62.5 50.5t101.5 27.5h26q54 0 94 -6q50 -8 87 -37q39 -31 56.5 -70t19.5 -86v-69.5t-1 -137.5t-3 -171t-4 -172t-3 -141.5t-1 -78.5q0 -23 -1 -55.5 t-3.5 -68.5t-6.5 -72t-10 -64q-14 -70 -46 -115t-52 -61q-18 -17 -49 -27q-26 -9 -68 -8h-16q-29 0 -45.5 1t-27.5 1h-20.5t-21.5 2q-51 4 -77.5 24.5t-43.5 55.5q-16 33 -26.5 83t-14.5 118zM164 172v-15q0 -27 6 -44q14 -39 53 -43h74q31 2 46 14t26 29q16 20 20 41.5 t6 58.5q0 8 1 87t1 192.5t1 245.5t1 247v195v92q-2 29 -16 37t-43 10q-6 0 -29.5 1t-46.5 1t-29 -9t-8 -32q0 -2 -4 -80t-11 -192.5t-14.5 -248.5t-14.5 -250t-11 -194.5t-4 -83.5q-2 -23 -4 -59z" />
<glyph unicode="p" horiz-adv-x="581" d="M-4 -6l45 1433q78 2 145 5q39 1 78 1h40q58 -1 91 -3t51.5 -13.5t28.5 -27t12 -31.5l7 -25q0 -6 1 -35.5t1 -72.5v-191q0 -47 -1 -83t-1 -50q-2 -45 -9.5 -118.5t-27.5 -135.5q-41 -121 -142 -145l-57 -15q-33 -8 -63 -14l-39 -8l-11 -469zM158 541q21 4 39 6 q29 4 56.5 8t41.5 8q20 6 30.5 35t18.5 88q4 39 7 76t5 82v135q0 47 -1 99t-2 98.5t-1 80.5v46q0 14 -8 25t-18.5 17.5t-20.5 9.5t-14 3h-23q-18 0 -39 2q-23 0 -53 2z" />
<glyph unicode="q" horiz-adv-x="653" d="M-2 199v120.5t1 172t1 168v108.5q0 59 3 130t6 136.5t6 117.5t5 73q4 47 32 92t63 72q41 33 91 40t85 7q33 0 81 -9.5t89 -44.5q39 -35 63.5 -77.5t26.5 -108.5v-71.5t-1 -140.5t-2 -174t-3 -174t-3 -140.5t-3 -71.5q-10 -109 -33 -166t-41 -102q-4 -8 -7 -16.5t-9 -16.5 l65 -84l-57 -57l-54 75q-23 -23 -50 -39t-62 -20q-35 -3 -64.5 -3t-53.5 3q-48 6 -101 29q-27 12 -41.5 24t-21.5 31.5t-9 47.5t-2 69zM164 228q0 -42 2 -56q4 -45 22 -76q16 -28 53 -28h5q33 4 51 32.5t29 69.5l-90 129l65 49l45 -78q10 66 17.5 154t9.5 172q0 14 1 63.5 t1 116t1 142t1 144v120v69.5q0 31 -10.5 49.5t-24.5 27.5t-30 10h-11q-10 0 -18 -1q-41 -8 -70 -44t-31 -95q0 -12 -1 -49t-3 -87t-3 -105.5t-3 -105.5t-3 -88t-1 -50t-1 -54.5t-2 -96.5t-1 -116.5v-119v-98.5z" />
<glyph unicode="r" horiz-adv-x="675" d="M2 27l45 1403q88 2 168 2q66 0 132.5 -1t96.5 -6q63 -10 91 -39.5t38 -85.5q9 -54 15 -158q2 -37 2 -76q0 -70 -6 -146q-6 -59 -22.5 -112.5t-36 -96.5t-40 -75t-34.5 -48q-25 -27 -66 -57.5t-92 -47.5q14 -23 43 -67.5t57 -91.5q18 -29 46 -74t53 -88q29 -51 61 -105 l-133 -2l-213 414h-17q-4 0 -6 2l-4 -469zM180 539h9q14 0 32 4t43 16t51 35q51 47 69 91t22 79q2 14 3 57t3 98.5t3 117t2 113.5t1 88v42q0 23 -12.5 39t-43.5 20q-10 0 -34.5 1t-53.5 1q-33 0 -69 2z" />
<glyph unicode="s" horiz-adv-x="638" d="M0 254l135 20q4 -16 10 -34q4 -16 11.5 -34t15.5 -32q28 -45 57 -45q6 0 11 2q29 10 27.5 51t-13.5 94q-4 16 -14.5 65.5t-25.5 117t-32.5 144.5t-34 150.5t-31 137t-22.5 100.5q-12 55 -17 109q-2 24 -2 47q0 28 3 55q6 49 26.5 93t63.5 81q41 34 89 48q37 10 73 11 q11 0 21 -1q46 -4 85 -23.5t62 -46.5q23 -29 38 -63.5t25 -67.5q12 -37 21 -76l-123 -18q-4 12 -8 28q-4 14 -9.5 35t-15.5 45q-12 39 -46 53q-24 10 -48 11q-10 0 -20 -2q-34 -6 -58 -34q-23 -26 -23 -66v-7q4 -86 28 -184t58 -223q18 -70 42 -158t43.5 -174t31.5 -160 q8 -49 8 -85q0 -18 -2 -32q-10 -78 -41.5 -127t-113.5 -57q-14 -1 -27 -1q-36 0 -66 8q-40 11 -73 41t-60.5 80t-58.5 124z" />
<glyph unicode="t" horiz-adv-x="589" d="M-4 1329l4 90l508 17l-4 -99l-185 -4l-32 -1325l-197 -12l57 1335z" />
<glyph unicode="u" horiz-adv-x="716" d="M20 376.5q0 61.5 2.5 127t4.5 123.5q0 20 2 65t5 106.5t7 132t8 142.5q9 168 19 367l192 -6q-18 -236 -35 -426q-6 -82 -13 -162t-12 -145.5t-9.5 -110.5t-6.5 -58q-4 -27 -8 -83t-8 -117.5t-8 -112.5t-4 -65q-2 -18 4 -26.5t26 -8.5q31 -4 57.5 -3t39.5 1q18 0 28.5 7 t14.5 32q2 10 7 53t12 104.5t14.5 133t15.5 139t14 123t10 84.5q2 20 7.5 58t9.5 86t9 101.5t11 106.5q10 123 25 266l182 -10q-20 -176 -37 -320q-6 -61 -14 -121.5t-14.5 -109.5t-10.5 -84t-4 -45q-2 -20 -10 -79.5t-19.5 -127.5t-20.5 -130t-15 -89q-12 -63 -32 -114.5 t-34 -74.5t-32.5 -45t-65.5 -43q-41 -16 -75 -20q-23 -3 -42 -3q-10 0 -18 1q-33 0 -74 5t-64 34q-29 37 -30.5 72.5t-5.5 76.5q-2 29 -3.5 80t-1.5 112.5z" />
<glyph unicode="v" horiz-adv-x="739" d="M2 1442h170l109 -1080l241 1074l115 10l-332 -1444l-119 -10z" />
<glyph unicode="w" horiz-adv-x="806" d="M2 1438l170 8l37 -895l82 274l88 4l119 -456l63 1034l144 -4l-66 -1344l-145 -14l-156 502l-94 -516l-135 -29z" />
<glyph unicode="x" horiz-adv-x="655" d="M-115 -23l279 668l-115 789l150 8l73 -531l205 551l127 8l-311 -772l131 -688l-182 -10l-70 422l-160 -459z" />
<glyph unicode="y" horiz-adv-x="548" d="M-16 1421l118 11l86 -701l179 690l116 2l-221 -766l-20 -645h-183l60 580z" />
<glyph unicode="z" horiz-adv-x="710" d="M-59 12l528 1334l-401 -13l8 86l571 6l-485 -1337l266 2l8 -82z" />
<glyph unicode="{" horiz-adv-x="507" d="M2 643v133q39 0 66 8q29 6 47 21q27 12 28 43q6 27 7 72v44t-3 46q-2 23 -3 45t-5 45q-2 23 -4 40t-2 31q-2 16 -4 36t-4 46q-4 25 -4 50.5t2 54.5q4 55 20 96q19 43 60 55q43 8 80 13q18 2 34.5 1t28.5 -3q16 -2 31.5 -4.5t28.5 -6.5v-116q-16 2 -32 3t-30 -1 q-25 0 -45 -13q-23 -10 -25 -36q-6 -29 -4 -78q2 -25 3 -50.5t3 -52.5t3.5 -51t5.5 -47q2 -23 3 -37t1 -24q2 -8 3 -22.5t5 -37.5q2 -20 2 -42.5t-4 -45.5q-6 -49 -31 -88q-27 -43 -78 -57q37 -12 66 -47q25 -31 39 -84q8 -29 10 -65t-2 -83t-7 -86t-7 -74t-6.5 -63.5 t-4.5 -50.5q-2 -25 -1 -43.5t3 -34.5q2 -29 19 -47q16 -16 33 -25q14 -6 34 -6t39 6l5 -137q-49 -12 -97 -12q-41 0 -80 12q-43 14 -63 45q-23 31 -33 90q-4 29 -6 57.5t0 59.5q2 29 3 57.5t5 57.5q6 51 12 86q4 16 6.5 35.5t4.5 41.5q2 23 3 44.5t-1 44.5q-4 45 -13 77 q-12 33 -32 49q-43 20 -78 25h-35z" />
<glyph unicode="|" horiz-adv-x="268" d="M2 1554l160 -2l4 -1656l-158 -5z" />
<glyph unicode="}" horiz-adv-x="503" d="M-2 -4q37 -6 59 -4q23 2 45 12q20 8 27 37q2 14 3 32.5t-1 45.5q0 49 -6 102q-2 27 -3 51.5t-5 46.5q-4 49 -6 64q0 10 -1 23.5t-4 35.5q-4 23 -3 44.5t6 43.5q2 45 28 86q20 41 78 58q-35 12 -63 47q-10 16 -20.5 35.5t-20.5 48.5q-16 55 -7 147q4 47 7.5 86t7.5 74 t5 63.5t3 53.5q2 23 1 42t-3 36q-2 31 -16 47q-16 18 -35 22q-18 6 -35 6h-20.5t-20.5 -4v140q27 4 50.5 7t45.5 3q20 0 39 -3t39 -7q41 -12 64 -48q23 -31 32 -90q4 -29 6 -57.5t0 -56.5q0 -31 -2 -59.5t-6 -57.5t-7 -50.5t-5 -37.5q-4 -16 -6 -34.5t-4 -41.5t-3 -45t1 -45 q4 -45 12 -78t31 -47q20 -16 43 -18q25 -6 39 -7q18 -4 34 0v-133q-39 0 -65 -8q-23 -2 -51 -20q-23 -16 -29 -41q-2 -16 -3 -33.5t-1 -40.5v-45.5t2 -44.5q2 -23 3 -45.5t5 -44.5q2 -23 4 -40.5t4 -31.5t3 -34.5t6 -47.5q6 -47 2 -104q-4 -29 -8.5 -52.5t-14.5 -46.5 q-14 -41 -59 -53q-39 -10 -80 -14h-33.5t-30.5 2q-16 4 -29.5 6t-27.5 6v117z" />
<glyph unicode="~" horiz-adv-x="1292" d="M6 715q49 70 111 125q53 47 124.5 89t157.5 46q66 4 112 -13.5t81 -45t62.5 -61.5t53 -62.5t54.5 -46t67 -15.5q39 2 75 29.5t65 60.5q33 37 63 84l158 -143q-57 -63 -119 -115q-53 -43 -115.5 -80t-121.5 -35q-88 0 -139.5 36t-89.5 78t-74.5 75t-94.5 27 q-51 -4 -98 -38t-84 -73q-43 -45 -82 -102z" />
<glyph unicode="&#xa1;" horiz-adv-x="403" d="M10 -2l90 1180l154 -15l-10 -1165h-234zM84 1339q0 55 29.5 83t76.5 28q53 0 81 -32t28 -79q0 -51 -31 -79.5t-78 -28.5q-49 0 -77.5 30.5t-28.5 77.5z" />
<glyph unicode="&#xa2;" horiz-adv-x="829" d="M-8 421.5q-6 110.5 6 240t39 268.5q43 225 124 344t222 133l20 133l132 -4l-23 -139q76 -20 121 -72.5t67 -107.5q27 -66 35 -144l-153 -22q-2 12 -4 30q-2 16 -5.5 37t-9.5 49q-10 37 -28.5 61.5t-42.5 41.5l-183 -1147q35 4 66 24.5t51 61.5q16 35 23 72q4 18 6 36 l161 -20q-12 -80 -45.5 -137.5t-79 -95t-98.5 -56t-104 -18.5l-19 -117l-108 8l18 127q-27 10 -48 25.5t-38 38.5q-47 61 -71.5 150t-30.5 199.5zM129 466q0 -85 7 -160t30 -116q10 -23 35 -38l166 1132q-18 -6 -36 -17.5t-30 -27.5q-33 -39 -56.5 -93t-41 -115.5 t-30.5 -127t-21 -125.5q-8 -59 -15.5 -143t-7.5 -169z" />
<glyph unicode="&#xa3;" horiz-adv-x="626" d="M-61 885h127q2 70 3 120t1 72q2 45 3 86t10 77t29.5 68.5t59.5 65.5q41 35 89 48.5t94 9t84 -23.5t61 -46q23 -29 38 -62.5t25 -66.5q12 -37 21 -76l-121 -18q-2 12 -8 28q-4 14 -10.5 35t-14.5 45q-12 37 -43 53.5t-62.5 12.5t-56 -27.5t-26.5 -64.5q0 -29 -2 -69 t-3 -82t-2.5 -78t-1.5 -56v-17.5t-2 -31.5l168 2l-10 -193l-160 2q-2 -94 -3 -199.5t-3 -195.5q-2 -104 -4 -207h270l-2 -102l-440 12q2 111 4 230q2 100 4 223t6 239h-120z" />
<glyph unicode="&#xa5;" horiz-adv-x="548" d="M-12 602l157 2l-16 94h-135l-2 187h106l-86 534l119 11l66 -543h59l137 532l117 4l-154 -536l97 2l-11 -193l-141 2l-10 -41l-2 -51h162v-200l-168 -3l-15 -389h-180l39 389h-129z" />
<glyph unicode="&#xa7;" horiz-adv-x="618" d="M4 670q0 26 4 57q14 74 53 119q33 37 58 55q-2 0 -6 4q-33 25 -62 72q-27 49 -35 102q-12 59 -10 117q2 57 23 113q20 51 77 86q59 33 119 39q31 4 62.5 1t60.5 -14q61 -18 94 -69q33 -47 45 -105q4 -27 8.5 -51.5t6.5 -46.5q0 -27 -1 -52.5t-5 -49.5v-9l-156 9l2 8 q4 23 6 45t2 45q0 37 -6 74t-22 59q-23 25 -48 31q-29 6 -53 0q-14 -4 -24.5 -10.5t-20.5 -14.5q-18 -18 -24 -51q-4 -16 -4.5 -30.5t-0.5 -28.5q0 -29 7 -66q2 -33 22 -66q14 -29 57 -51q23 -10 42.5 -20t39.5 -21q20 -10 40 -21t36 -24q33 -23 62 -49q25 -23 39 -59 q10 -25 14 -68q6 -37 -4 -84q-6 -43 -31 -86q-16 -35 -53 -65q39 -35 61 -74q23 -43 33 -98q6 -33 2 -95q-2 -29 -9 -56.5t-18 -55.5q-25 -55 -71 -97q-47 -39 -131 -45h-27q-66 0 -108 25q-53 31 -80 68q-31 39 -43 84q-6 23 -10.5 40t-8.5 29v8l121 9v-7q8 -39 25 -69 q6 -14 16 -25.5t23 -21.5q23 -20 69 -21q39 0 66 17q25 14 37 41t12 59q0 37 -8 70q-10 35 -21 55q-16 27 -35 45q-23 20 -53 35q-31 14 -78 30q-23 8 -44 18.5t-38 20.5q-39 27 -59 58q-23 33 -33 80q-4 23 -4 49zM150 752q-14 -59 20 -115q35 -53 129 -84q2 0 4 -1t4 -1 q23 20 43 63t6 105q-8 33 -22 57q-16 25 -33 37q-20 14 -41 23q-10 4 -21.5 9t-23.5 9l-17.5 -17.5t-19.5 -21.5t-17 -28.5t-11 -34.5z" />
<glyph unicode="&#xa9;" horiz-adv-x="944" d="M3 781.5q-1 99.5 0 184.5t2 148.5t3 89.5q2 39 13.5 78t34 71.5t59.5 55.5t90 31q35 6 89 6t115.5 -2t124 -6t115.5 -8q61 -6 95 -30t51.5 -59.5t21.5 -77.5t6 -83q2 -29 4 -106t3 -178t3.5 -213t3.5 -207t2 -164t1 -81q0 -18 -1 -59t-16.5 -81t-50.5 -69.5t-104 -29.5 q-68 2 -137.5 2h-130h-107.5t-72 2q-25 0 -57.5 1t-63 20.5t-54 69.5t-30.5 151q-4 68 -7 157.5t-4 188t-2 198zM115 1134q0 -73 1 -176.5t3 -221.5t4 -223t4 -186t6 -108q6 -41 22.5 -64.5t38 -34.5t43 -14.5t35.5 -5.5h60.5h103t110.5 1t85 3q31 0 48 9.5t25.5 25 t10.5 36.5t2 46q0 16 1 87t0 170.5t-2 214t-3 217t-3 181t-3 107.5q-2 41 -18.5 64.5t-37 36t-42 16.5t-34.5 6q-31 6 -77.5 10t-95 5t-92.5 0t-70 -3q-53 -6 -86 -30.5t-37 -77.5q-2 -18 -2 -91zM201 644.5v66.5t1 66.5t3 62.5t3 57.5t3 50.5q2 23 4 40.5t6 29.5 q6 33 19 61q8 14 16 25.5t20 21.5q18 18 58 33q37 12 92 12q49 2 82 -6q29 -8 51 -24q20 -14 31 -35q12 -20 20 -41q8 -14 15 -53q2 -16 3 -31.5t1 -32.5q2 -18 2 -36.5v-39.5l-129 9v21t-2 22q0 10 -1 20t-3 21q-2 12 -3 23t-4 22q-6 25 -28 34q-23 10 -47 7 q-29 -4 -47 -17q-23 -12 -29 -33q0 -2 -4 -53q0 -23 -1 -49.5t-1 -58.5v-140q0 -37 1 -70.5t1 -66.5q2 -59 6 -112q4 -47 10 -58q6 -18 29 -24q10 -4 21.5 -6.5t23.5 -2.5q23 0 41 7q21 6 27 18q2 4 4 13.5t2 25.5q2 16 2 30.5v30.5v78h151q-4 -59 -14 -105t-25 -81 q-29 -66 -67 -98q-35 -33 -78 -39q-35 -6 -74 -2q-66 8 -108 51q-45 41 -64 110q-10 25 -12 74q-2 25 -3 52.5t-3 56.5q-2 31 -2 62.5z" />
<glyph unicode="&#xad;" horiz-adv-x="475" d="M-10 602h399l-22 -192l-367 -7z" />
<glyph unicode="&#xae;" horiz-adv-x="940" d="M2 725v109.5t2 105.5q0 53 1 99t3 87q0 41 2 71t4 50q2 18 13 49q4 16 10 30.5t16 31.5q18 31 49 55q29 27 72 29q23 4 50.5 5t64.5 3q72 4 145 0q39 -2 74 -3t70 -3q71 -6 100 -14q66 -20 106 -84q41 -63 41 -129v-37t2 -66q2 -39 2 -85t2 -99q0 -53 1.5 -110.5 t1.5 -117.5q2 -59 2 -116.5t2 -110.5v-99t-2 -87q-4 -78 -7 -99q-4 -16 -6 -32.5t-6 -32.5q-10 -37 -26 -62q-16 -29 -50 -47q-35 -20 -92 -20q-29 -4 -62.5 -4h-70.5h-76t-73 2q-74 2 -136 6q-29 2 -51 3t-37 5q-55 8 -86 68q-35 61 -43 151q-2 16 -4 42t-2 65q-2 39 -3 83 t-1 95q0 49 -1 102.5t-1 110.5zM123 946q0 -45 1 -91t1 -97v-98.5t2 -92.5q2 -47 2 -86t2 -73q0 -35 1 -57.5t3 -33.5q2 -35 6 -61q4 -12 6.5 -23.5t6.5 -21.5q4 -16 22 -35q10 -12 39 -31q25 -14 72 -24q49 -10 102 -12q55 -2 107 0q53 0 90 6q37 2 59 20q25 18 39 45 q14 20 21 53q6 31 6 54q0 8 1 27.5t1 50.5v66.5t2 78.5v178v93t-2 89v154v90q0 74 -23 115q-23 39 -43 55q-4 4 -41 16q-27 10 -76 21q-45 8 -106 12q-31 2 -61.5 1t-65.5 -5q-70 -6 -102 -24q-16 -8 -28.5 -17.5t-21.5 -19.5q-14 -25 -16 -43v-37q-2 -10 -3 -31.5t-1 -54.5 v-73t-2 -83zM211 246l139 -17l8 299l136 -266l127 -8l-15 20q-4 4 -21.5 34t-43 73t-54 90t-51.5 84l19 6q88 33 139 148q14 31 23.5 82t13.5 103t5 97t-1 68q-8 61 -36 98t-71 41q-16 2 -59 5t-89 6t-82 5.5t-40 2.5h-12zM360 610l17 516q18 -2 51 -3t45 -3t22.5 -9 t12.5 -42q0 -10 -1 -53t-2 -95.5t-4 -99.5t-5 -61q-12 -82 -64 -127q-29 -23 -72 -23z" />
<glyph unicode="&#xb0;" horiz-adv-x="380" d="M4 1238v65q4 66 28.5 102.5t86.5 40.5q12 2 32.5 0t42 -15.5t39 -40t21.5 -73.5q10 -96 17.5 -203.5t7.5 -193.5q0 -25 -6.5 -50.5t-20.5 -47t-39 -37t-59 -15.5q-72 -2 -106 45t-38 131q0 33 -2 85t-3 106.5t-1 100.5zM78 1249q0 -12 1 -57t3 -97.5t4 -98.5t4 -60 q4 -41 17.5 -56.5t39.5 -15.5q33 2 41.5 22.5t6.5 49.5q0 8 -2.5 53t-5.5 99.5t-6 104.5t-5 71q-2 35 -16.5 51t-36.5 16q-27 -2 -36 -24.5t-9 -57.5z" />
<glyph unicode="&#xb1;" horiz-adv-x="724" d="M4 913l209 19l-12 242h196l2 -226l211 19l13 -203l-222 -8l5 -213l-170 -4l-13 213l-203 -7zM70 432h485l-23 -192l-452 -9z" />
<glyph unicode="&#xb5;" horiz-adv-x="729" d="M-31 -281l99 1721l176 -2l-92 -1319q8 -2 16 -2h16q31 -2 57.5 -2h39.5q20 2 29 9t14 30q2 10 7 54t12 105.5t15.5 133t15.5 139t13 123t10 84.5q2 20 7.5 58t9.5 86t9 101.5t11 106.5q12 123 27 266l182 -10q-20 -176 -37 -320q-6 -61 -14 -121.5t-14.5 -109.5 t-10.5 -84t-4 -45q-2 -23 -10 -82t-19.5 -127t-20.5 -129t-15 -88q-12 -63 -33 -115.5t-35 -75.5q-12 -23 -30.5 -44t-65.5 -42q-41 -16 -75 -20t-60 -4h-26.5t-29.5 4l-18 -266z" />
<glyph unicode="&#xbf;" horiz-adv-x="704" d="M0 168v73.5t1 132t1 139.5v97q0 31 6 50.5t16.5 34t23.5 22.5t28 16q14 8 38.5 20.5t49.5 24.5q29 14 59 31l-4 365l203 4q0 -63 -2 -119q-2 -47 -3 -95.5t-1 -72.5q-4 -51 -21.5 -92t-56.5 -66q-18 -12 -42 -27.5t-46 -27.5q-25 -14 -49 -29v-499q6 -2 16 -3h64 q45 -2 62 5.5t40 19.5q20 14 29.5 37.5t9.5 48.5v76q0 23 2 51h176v-53v-92q-2 -39 -22.5 -77t-75.5 -75q-29 -18 -61.5 -28.5t-66.5 -14.5t-67 -5t-59 -1q-53 0 -95 5t-83 28q-41 20 -55.5 42.5t-14.5 53.5zM211 1354q0 55 28.5 82.5t77.5 27.5q53 0 80 -31.5t27 -78.5 q0 -51 -30 -80t-77 -29q-49 0 -78.5 31t-27.5 78z" />
<glyph unicode="&#xc0;" d="M-2 16l164 11l65 424l258 2l78 -447l156 21l-234 1398l-245 7zM102 1640l97 132l245 -201l-67 -90zM256 555l92 735l117 -733z" />
<glyph unicode="&#xc1;" d="M-2 16l240 1416l247 -7l234 -1398l-156 -21l-78 447l-258 -2l-65 -424zM256 555l209 2l-117 733zM270 1571l246 201l96 -132l-274 -159z" />
<glyph unicode="&#xc2;" d="M-2 16l242 1416l247 -5l232 -1400l-154 -21l-78 447l-260 -2l-63 -426zM156 1536l219 199l205 -199l-80 -49l-133 131l-148 -131zM256 555l211 2l-119 733z" />
<glyph unicode="&#xc3;" d="M-2 16l166 9l65 426l260 2l78 -447l154 21l-232 1400l-247 5zM117 1606q6 8 22 28q10 10 19.5 18.5t19.5 18.5q12 10 24.5 18.5t26.5 14.5q27 14 56 14q39 0 55 -16q23 -16 33 -35l14 -17.5t10 -17.5q12 -16 33 -16q12 0 29 10q12 10 22 23q6 6 12.5 14t12.5 16l80 -67 q-6 -8 -27 -29q-8 -8 -17.5 -16t-19.5 -17q-10 -8 -21.5 -15t-21.5 -11q-23 -12 -41 -13q-35 0 -51 15q-10 6 -18.5 12t-14.5 14l-28 29q-14 14 -35 14q-23 0 -37 -12q-8 -6 -15.5 -13t-13.5 -14q-6 -10 -12 -19t-12 -21zM258 555l92 735l119 -733z" />
<glyph unicode="&#xc4;" d="M-2 16l166 9l65 426l258 2l80 -447l154 21l-234 1400l-245 5zM137 1595q-4 25 6 43q6 18 19 31q12 12 28 19q18 6 33 6q18 2 37 -6q14 -6 27 -19q12 -12 18 -29q8 -20 8 -34q0 -12 -4 -33l-7 -17.5t-9 -13.5q-10 -16 -25 -24q-16 -11 -32 -11q-10 0 -17.5 1t-17.5 3 q-16 6 -29 19q-12 6 -22 29q-10 14 -13 36zM258 555l92 735l117 -733zM418 1599v18.5t4 16.5q6 14 16 29q6 4 12.5 9t14.5 9t31 9q33 0 59 -23q27 -23 27 -59q4 -35 -19 -60q-22 -24 -59 -24q-35 -4 -60 20q-23 20 -26 55z" />
<glyph unicode="&#xc5;" d="M-2 16l242 1416l247 -5l234 -1400l-156 -21l-78 447l-258 -2l-65 -426zM225 1640q0 33 11 56q14 29 30 45q25 20 47 31q25 12 56 12t59 -12q23 -10 47 -31q21 -18 31 -45q12 -29 12 -56q0 -31 -12 -55q-10 -25 -31 -43q-25 -20 -47 -31q-31 -10 -59 -10q-29 0 -56 10 q-23 10 -47 31q-18 18 -30 43q-10 20 -11 55zM256 555l211 2l-117 733zM299 1632q0 -12 6 -24q8 -16 14 -23q6 -6 23 -14q16 -4 27 -4q30 0 53 18q20 20 20 47q0 29 -20 47q-23 18 -53 19q-29 0 -50 -19q-20 -20 -20 -47z" />
<glyph unicode="&#xc6;" horiz-adv-x="1085" d="M-35 16l535 1422l512 -8l2 -93h-293l-10 -733h159l2 -110h-163l-4 -381l251 -2v-107l-456 4l18 447l-227 -4l-148 -424zM330 571h192l29 666z" />
<glyph unicode="&#xc7;" horiz-adv-x="679" d="M2 774q0 119 5 211t14.5 163t21.5 121t31 85q18 37 50 54t68.5 23.5t74.5 4.5t69 -4q80 -8 139.5 -27t87.5 -59q14 -20 20.5 -60.5t9.5 -84.5t3 -83v-55l-160 14v60q0 25 -1 48t-1 40q0 25 -19.5 43t-46 30.5t-54 17.5t-44.5 5q-76 0 -88 -121q-2 -23 -4 -72t-5 -109.5 t-6 -128t-5 -130t-4 -113.5t-2 -80v-94t2 -124.5t4 -115t2 -63.5q4 -29 25.5 -50.5t68.5 -21.5q49 0 74.5 14.5t34.5 55.5q4 20 6 52t2 63v73h184q-2 -63 -10 -118q-8 -47 -22.5 -96.5t-41.5 -71.5q-27 -23 -48 -37.5t-44.5 -21.5t-52.5 -9t-72 0q-4 -12 -2 -16 q4 -18 28.5 -26.5t53.5 -17t54.5 -22.5t29.5 -45q6 -31 -9 -65.5t-51 -62.5t-92.5 -44t-134.5 -10l-6 114q41 -6 76 -4q29 2 54.5 10.5t33.5 30.5q8 23 -14.5 35t-53 22.5t-58 23t-27.5 34.5q-2 20 8 33.5t24 23.5q-63 25 -101 75t-48 97q-16 59 -25.5 201.5t-5.5 384.5z " />
<glyph unicode="&#xc8;" horiz-adv-x="557" d="M-20 8l454 -2l2 105l-252 2l4 381h164l-2 110h-160l11 731h293l-2 92l-453 5zM-16 1640l96 132l246 -201l-68 -90z" />
<glyph unicode="&#xc9;" horiz-adv-x="557" d="M-20 8l59 1424l453 -5l2 -92h-293l-11 -731h160l2 -110h-164l-4 -381l252 -2v-105zM152 1571l245 201l97 -132l-275 -159z" />
<glyph unicode="&#xca;" horiz-adv-x="557" d="M-20 8l59 1426l453 -4l2 -93h-293l-11 -733h160l2 -110h-164l-4 -381l252 -2v-107zM51 1536l219 199l205 -199l-80 -49l-133 131l-147 -131z" />
<glyph unicode="&#xcb;" horiz-adv-x="557" d="M-20 4l454 -4l2 106h-252l2 381l166 2l-2 109h-160l11 735h293l-2 90l-453 7zM41 1595q0 25 6 43q6 20 21 31q12 12 28 19q14 6 33 6q18 4 35 -6q18 -8 26 -19q12 -12 19 -29q8 -14 8 -34v-16.5t-4 -16.5q-6 -20 -14 -31q-12 -16 -27 -24q-15 -11 -33 -11q-12 0 -33 4 q-18 6 -30 19q-12 10 -23 29q-10 14 -12 36zM322 1599q0 18 6 35q2 14 16 29q8 8 25 18q6 4 14 5.5t16 3.5q35 0 62 -23q25 -23 24 -59q4 -35 -18 -60q-22 -24 -57 -24q-37 -2 -60 20q-25 23 -28 55z" />
<glyph unicode="&#xcc;" horiz-adv-x="327" d="M-119 1642l99 132l245 -201l-67 -92zM37 0l20 1427l144 15l-8 -1430z" />
<glyph unicode="&#xcd;" horiz-adv-x="327" d="M29 0l20 1427l146 15l-11 -1430zM47 1573l246 201l96 -132l-276 -161z" />
<glyph unicode="&#xce;" horiz-adv-x="354" d="M-82 1536l219 199l205 -199l-80 -49l-133 131l-145 -131zM47 0l21 1427l145 15l-10 -1430z" />
<glyph unicode="&#xcf;" horiz-adv-x="317" d="M-100 1595q-2 23 4 43q4 10 9 17.5t11 13.5q12 12 29 19q14 6 33 6q18 4 34 -6q16 -6 29 -19q12 -12 19 -29q6 -16 6 -34q2 -14 -4 -33q-2 -14 -15 -31q-10 -16 -24 -24q-17 -11 -33 -11q-14 0 -35 4q-10 4 -16 8.5t-15 10.5q-12 10 -22 29q-10 16 -10 36zM31 0l20 1427 l144 15l-9 -1430zM180 1599q-2 16 4 35q8 20 17 29q4 4 11 9t13 9q10 4 31 9q35 0 61 -23q23 -20 27 -59q4 -35 -20 -60q-23 -24 -58 -24q-35 -4 -59 20q-27 23 -27 55z" />
<glyph unicode="&#xd0;" horiz-adv-x="700" d="M-61 879l155 2q2 104 4 204.5t4 178.5q2 92 4 172q33 2 66 2h127q76 -2 132 -37t99 -88q47 -59 62.5 -127t19.5 -146q2 -55 3 -147t0 -188.5t-4 -181.5t-9 -126q-8 -57 -17.5 -108t-25.5 -103q-10 -31 -34.5 -59.5t-56.5 -51t-69 -39t-73 -22.5q-41 -8 -84 -11t-80 -5 q-43 -2 -84 -2q-2 59 -2 119v107.5t2 101.5t4 144t6 226h-147zM240 156h34h29.5t28.5 4q45 6 76 47q16 18 25 46t16 52q4 20 10 64.5t12 98.5t11 112.5t7 107.5q2 45 2.5 102.5t-1 114t-3.5 102.5t-4 68q-10 59 -30.5 113.5t-36.5 83.5q-16 35 -60 45q-6 0 -19 1t-28 1h-33 l-14 -436l137 2l-10 -193h-133z" />
<glyph unicode="&#xd1;" horiz-adv-x="706" d="M2 25h186l-8 794l246 -811l152 6l12 1416h-146l-28 -928l-244 925l-145 -2zM74 1606q6 8 22 28q10 10 19.5 18.5t21.5 18.5q10 10 22.5 18.5t26.5 14.5q27 14 56 14q39 0 57 -16q20 -16 33 -35q6 -10 12 -17.5t12 -17.5q10 -16 31 -16q12 0 29 10q6 4 12 10t12 13 q6 6 11.5 14t11.5 16l80 -67q-6 -8 -27 -29q-8 -8 -17.5 -16t-19.5 -17q-10 -8 -21.5 -15t-21.5 -11q-23 -12 -41 -13q-35 0 -51 15q-10 6 -18.5 12t-14.5 14q-8 8 -14 15.5t-14 13.5q-14 14 -35 14q-23 0 -37 -12q-16 -14 -27 -27q-16 -20 -24 -40z" />
<glyph unicode="&#xd2;" horiz-adv-x="653" d="M10 281q4 -66 14.5 -117t26.5 -84q16 -35 43 -55.5t78 -24.5q12 0 21.5 -1t20.5 -1h27.5h43.5q55 -2 85.5 7t49.5 26q20 18 51 63t47 113q6 29 10 64.5t6.5 71.5t3.5 68.5t1 55.5q0 18 1 78.5t3 141.5t3 172t2 170t1 136.5v71.5q0 94 -74 154q-37 29 -87 37t-120 6 q-57 -2 -101 -28t-63 -50q-10 -16 -21 -43t-20 -74q-4 -23 -9 -77t-11 -121.5t-12 -139.5t-11 -133q-2 -14 -3 -51t-2 -86t-2 -104.5t-2 -104.5t-1 -87v-54zM68 1642l96 132l246 -201l-68 -92zM164 175.5q2 35.5 4 60.5q0 4 4 81.5t10 193.5t14.5 249t14.5 247.5t11 192.5 t5 80q2 23 8.5 32t26.5 9q25 2 48.5 1t29.5 -3q27 0 41 -8t16 -37q0 -12 1 -92t1 -195t-1 -246t-1 -244.5t-1 -192.5t-1 -87q-2 -39 -6 -60.5t-20 -41.5q-10 -14 -25.5 -27.5t-46.5 -13.5q-68 -4 -74 0q-18 2 -31.5 11t-21.5 32t-6 58.5z" />
<glyph unicode="&#xd3;" horiz-adv-x="653" d="M11 335q1 38 1 87t2 104.5t3 104.5t2 86t4 51q4 61 10 133t12 139.5t11 122t10 76.5q6 47 18 73.5t22 43.5q16 25 60.5 50.5t101.5 27.5q70 2 120 -6.5t87 -36.5q39 -29 56.5 -68t19.5 -86v-71.5t-1 -136.5t-3 -170t-4 -172t-3 -141.5t-1 -78.5q0 -23 -1 -55.5 t-3.5 -68.5t-6.5 -71.5t-10 -64.5q-14 -68 -46 -113t-50 -63q-20 -16 -51 -25.5t-84 -7.5h-43.5h-27.5t-21.5 1t-22.5 1q-49 4 -75.5 24.5t-43.5 55.5q-35 66 -41 201q-2 16 -1 54zM166 175q-2 -36 6 -58q6 -23 20.5 -32t30.5 -11q8 -2 76 0q29 0 44 13t26 28q16 20 20 41.5 t6 60.5q0 8 1 87t1 192.5t1 244.5t1 246v195v92q-2 29 -16 37t-41 8q-8 2 -31.5 3t-46.5 -1q-35 0 -37 -41q0 -2 -4 -80t-11 -192.5t-14.5 -247.5t-14.5 -249t-11 -193.5t-4 -81.5q0 -25 -2 -61zM242 1573l245 201l97 -132l-277 -161z" />
<glyph unicode="&#xd4;" horiz-adv-x="653" d="M10 287v54t1 88t2 105.5t2 104.5t2 86t3 51q4 61 10.5 133t12.5 139.5t12 122t11 76.5q6 47 17 73t21 42q18 27 62.5 52.5t101.5 25.5q70 4 120 -5.5t87 -37.5q72 -58 76 -154q0 -14 -1 -71.5t-2 -136.5t-2 -169t-3 -171t-3 -141t-1 -79q0 -25 -1 -57.5t-3.5 -68.5 t-6.5 -71.5t-10 -62.5q-16 -70 -47 -115t-51 -61q-18 -16 -49 -26.5t-84 -8.5q-29 0 -45.5 1t-27.5 1h-20.5t-21.5 2q-51 4 -76.5 23.5t-44.5 54.5q-31 66 -41 201zM106 1536l220 199l204 -199l-79 -49l-134 131l-145 -131zM165 182q-1 -37 5 -59q14 -39 53 -43h74 q31 2 46 14t26 27q16 23 20 43t6 59q0 8 1 87t1 192.5t1 245t1 246v194.5v92q-4 29 -17 37t-42 10q-6 0 -29.5 1t-46.5 1q-23 -2 -29 -10t-8 -31q0 -2 -2 -47t-7 -118.5t-10 -166t-10 -189.5t-10.5 -189.5t-10.5 -166t-7 -119.5t-2 -50q-2 -23 -3 -60z" />
<glyph unicode="&#xd5;" horiz-adv-x="653" d="M11 341q-1 -38 1 -54q4 -66 14.5 -117t26.5 -84q16 -35 43 -54.5t76 -23.5q12 -2 22.5 -2h21.5t27.5 -1t43.5 -1q53 -2 83.5 8.5t51.5 26.5q18 16 50 61t46 115q6 27 10 62.5t6.5 71.5t3.5 69t1 57q0 18 1 78.5t3 141.5t4 171t3 169t1 136.5v71.5q-4 98 -74 154 q-39 29 -88 38t-121 5q-57 0 -101 -25.5t-61 -52.5q-10 -16 -21 -42t-19 -73q-4 -23 -9.5 -77t-11.5 -121.5t-12 -139t-10 -133.5q-2 -14 -3.5 -51t-2.5 -86t-3 -104.5t-2 -105.5t-1 -88zM96 1606q6 8 23 28q8 10 18 18.5t21 18.5q12 10 24.5 18.5t26.5 14.5q23 14 55 14 q39 0 55 -16q10 -8 18.5 -16.5t14.5 -18.5t12.5 -17.5t12.5 -17.5q12 -16 33 -16q12 0 26 10q14 8 25 23q6 6 12 14l12 16l78 -67q-4 -6 -10 -12.5t-14 -16.5q-10 -8 -19.5 -16t-19.5 -17q-23 -18 -41 -26q-23 -12 -43 -13q-33 0 -49 15q-18 10 -35 26q-6 8 -13.5 15.5 l-13.5 13.5q-14 14 -35 14q-23 0 -37 -12q-10 -6 -16 -13l-12 -14q-6 -10 -12.5 -19t-12.5 -21zM166 182.5q2 36.5 2 59.5q0 4 2 50t7 119.5t10.5 166t10.5 189.5t10 189.5t10 166t7 118.5t2 47q2 39 37 41q25 0 47.5 -1t30.5 -1q27 -2 41 -10t16 -37v-92v-194.5v-246 t-1 -245t-1 -192.5v-87q-4 -39 -8 -59.5t-20 -42.5q-10 -14 -24.5 -26.5t-45.5 -14.5h-76q-37 4 -51 43q-8 23 -6 59.5z" />
<glyph unicode="&#xd6;" horiz-adv-x="653" d="M10 287q10 -137 43 -201q16 -35 42 -54.5t77 -23.5q12 -2 21.5 -2h20.5t27.5 -1t45.5 -1q53 -2 83.5 8.5t49.5 26.5q20 16 51 61t47 115q6 27 10 62.5t6.5 71.5t3.5 69t1 57q0 18 1 78.5t3 141.5t3 171t2 169t2 136.5t1 71.5q-2 47 -19.5 86t-56.5 68q-37 29 -87 38 t-120 5q-57 0 -101 -25.5t-63 -52.5q-10 -16 -21 -42t-17 -73q-4 -23 -10.5 -77t-12.5 -121.5t-12 -139t-11 -133.5q0 -14 -1 -51t-3 -86t-3 -104.5t-2 -105.5t-1 -88v-54zM92 1595q-2 23 4 43q4 10 9.5 17.5t11.5 13.5q12 12 28 19q14 6 33 6q18 4 35 -6q16 -6 29 -19 q12 -12 18 -29q6 -16 6 -34q2 -14 -4 -33q-2 -14 -14 -31q-10 -16 -25 -24q-17 -11 -33 -11q-10 0 -17 1t-17 3q-10 4 -16.5 8.5t-14.5 10.5q-12 10 -23 29q-10 16 -10 36zM166 182.5q2 36.5 2 59.5q0 4 2 50t7 119.5t10.5 166t10.5 189.5t10 189.5t10 166t7 118.5t2 47 q2 23 8.5 31t28.5 10q23 0 46.5 -1t29.5 -1q29 -2 43 -10t16 -37v-92v-194.5t-1 -246t-1 -245t-1 -192.5t-1 -87q-2 -39 -6 -59.5t-20 -42.5q-10 -14 -25.5 -26.5t-46.5 -14.5h-74q-39 4 -53 43q-6 23 -4 59.5zM373 1599q-2 16 4 35q8 20 16 29q4 4 11.5 9l13.5 9q10 4 31 9 q35 0 61 -23q23 -20 27 -59q4 -35 -21 -60q-22 -24 -57 -24q-35 -4 -60 20q-27 23 -26 55z" />
<glyph unicode="&#xd7;" horiz-adv-x="718" d="M-2 573l149 140l-143 161l123 115l149 -153l162 151l137 -151l-163 -138l159 -161l-141 -142l-162 183l-162 -138z" />
<glyph unicode="&#xd8;" horiz-adv-x="653" d="M11 341q1 38 1 88t2 105.5t3 104.5t2 86t4 51q4 61 10 133t12 139.5t11 122t10 76.5q8 47 19 73t21 42q18 27 61.5 52.5t100.5 25.5q45 2 82 0l17 116l131 -4l-25 -153q2 0 4 -2q70 -56 74 -154v-71.5t-1 -136.5t-3 -169t-4 -171t-3 -141t-1 -79q0 -25 -1 -57.5 t-3.5 -68.5t-6.5 -71.5t-10 -62.5q-14 -70 -46 -115t-50 -61q-20 -16 -50 -26.5t-85 -8.5h-35l-19 -104l-106 10l14 102q-35 10 -54 27.5t-34 46.5q-16 33 -26.5 84t-14.5 117q-2 16 -1 54zM166 178l168 1149q-10 0 -29.5 1t-40.5 1q-20 -2 -26.5 -10t-10.5 -31q0 -2 -2 -47 t-6 -118.5t-9 -166t-11 -189.5t-11.5 -189.5t-9.5 -166t-7 -119.5t-3 -50q0 -12 -1 -29.5t-1 -34.5zM262 80h37q31 2 45.5 14.5t24.5 26.5q16 23 21 43t7 59v79t1 175.5t1 228v236.5z" />
<glyph unicode="&#xd9;" horiz-adv-x="716" d="M20 378.5q0 61.5 1.5 127t3.5 123.5q0 20 2 65t5 106.5t7 132.5l8 142q9 166 21 365l190 -6q-20 -233 -35 -424q-6 -82 -13 -162t-12 -145.5t-8.5 -110.5t-5.5 -57q-4 -27 -8 -83.5t-8 -118t-8 -112.5t-4 -65q-2 -16 3 -24.5t25 -10.5q31 -2 57.5 -2h39.5q20 0 29 8 t14 31q2 10 7 53t12 104.5t14.5 133t15.5 138t14 122t10 84.5q2 20 7.5 58t9.5 86t9 101.5t11 106.5q12 123 27 266l180 -10q-20 -174 -37 -318q-6 -61 -13 -120.5t-13.5 -109.5t-10.5 -85t-4 -45q-2 -23 -11 -81t-19.5 -125.5t-20.5 -130t-16 -89.5q-10 -63 -31 -114.5 t-35 -73.5q-14 -23 -32.5 -44.5t-65.5 -41.5q-39 -16 -73 -20.5t-60 -4.5q-33 2 -74 7t-64 34q-29 35 -31.5 71.5t-6.5 77.5q-2 27 -2.5 78t-0.5 112.5zM135 1642l98 132l246 -201l-67 -92z" />
<glyph unicode="&#xda;" horiz-adv-x="716" d="M20 378.5q0 61.5 2.5 127t4.5 123.5q0 20 2 65t5 106.5t7 132.5l8 142q9 166 19 365l192 -6q-18 -233 -35 -424q-6 -82 -13 -162t-12 -145.5t-9.5 -110.5t-6.5 -57q-4 -27 -8 -83.5t-8 -118t-8 -112.5t-4 -65q-2 -16 4 -24.5t26 -10.5q31 -2 57.5 -2h39.5q18 0 27 8 t14 31q2 10 7 53t12 104.5t15.5 133t16.5 138t14 122t10 84.5q2 20 6.5 58t9.5 86t10 101.5t11 106.5q12 123 25 266l180 -10q-20 -174 -37 -318q-6 -61 -13 -120.5t-13.5 -109.5t-10.5 -85t-4 -45q-2 -23 -10 -81t-19.5 -125.5t-20.5 -130t-15 -89.5q-12 -63 -33 -114.5 t-33 -73.5q-14 -23 -32.5 -44.5t-65.5 -41.5q-41 -16 -75 -20.5t-60 -4.5q-33 2 -73 7t-65 34q-29 35 -30.5 71.5t-5.5 77.5q-2 27 -3.5 78t-1.5 112.5zM295 1573l246 201l96 -132l-275 -161z" />
<glyph unicode="&#xdb;" horiz-adv-x="716" d="M20 387.5q0 61.5 1.5 127t3.5 120.5q0 20 2 65t5 106.5t7 132.5l8 142q9 166 21 365l190 -6q-20 -233 -35 -424q-6 -82 -13 -162t-12 -145.5t-8.5 -110.5t-5.5 -57q-4 -25 -8 -82.5t-8 -117.5t-8 -111.5t-4 -65.5q-2 -18 3 -26.5t25 -10.5q31 -2 57.5 -2t39.5 2 q20 0 29 7t14 32q2 10 7 53t12 104.5t14.5 133t15.5 138.5t14 122t10 84q2 20 7.5 58t9.5 86t9 100.5t11 105.5q10 123 25 266l182 -8q-20 -176 -37 -319q-6 -61 -13 -122t-13.5 -110t-10.5 -84t-4 -45q-2 -20 -11 -79.5t-19.5 -127t-20.5 -129t-16 -88.5 q-10 -63 -31 -115.5t-35 -74.5q-14 -23 -32.5 -44.5t-65.5 -41.5q-39 -16 -73 -20.5t-62 -2.5q-31 0 -72 5t-64 34q-29 37 -31.5 73t-6.5 77q-2 29 -2.5 80t-0.5 112.5zM168 1536l219 199l205 -199l-80 -49l-133 131l-146 -131z" />
<glyph unicode="&#xdc;" horiz-adv-x="716" d="M20 387.5q0 61.5 2.5 127t4.5 120.5q0 20 2 65t5 106.5t7 132.5l8 142q9 166 19 365l192 -6q-18 -233 -35 -424q-6 -82 -13 -162t-12 -145.5t-9.5 -110.5t-6.5 -57q-4 -25 -8 -82.5t-8 -117.5t-8 -111.5t-4 -65.5q-2 -18 4 -26.5t26 -10.5q31 -2 57.5 -2t39.5 2 q18 0 27 7t14 32q2 10 7 53t12 104.5t15.5 133t16.5 138.5t14 122t10 84q2 20 6.5 58t9.5 86t10 100.5t11 105.5q12 123 25 266l180 -8q-20 -176 -37 -319q-6 -61 -13 -122t-13.5 -110t-10.5 -84t-4 -45q-2 -20 -10 -79.5t-19.5 -127t-20.5 -129t-15 -88.5 q-12 -63 -33 -115.5t-35 -74.5q-12 -23 -30.5 -44.5t-65.5 -41.5q-41 -16 -75 -20.5t-60 -2.5q-33 0 -74 5t-64 34q-29 37 -30.5 73t-5.5 77q-2 29 -3.5 80t-1.5 112.5zM154 1595q-2 23 4 43q4 10 9 17.5t11 13.5q12 12 29 19q14 6 33 6q18 4 34 -6q16 -6 29 -19 q12 -12 19 -29q6 -16 6 -34q2 -14 -4 -33q-2 -14 -15 -31q-10 -16 -24 -24q-17 -11 -33 -11q-10 0 -17.5 1t-17.5 3q-10 4 -16 8.5t-15 10.5q-12 10 -22 29q-10 16 -10 36zM434 1599q-2 16 4 35q8 20 17 29q4 4 11 9t13 9q10 4 31 9q35 0 61 -23q23 -20 27 -59 q4 -35 -20 -60q-23 -24 -58 -24q-35 -4 -59 20q-27 23 -27 55z" />
<glyph unicode="&#xdd;" horiz-adv-x="548" d="M-16 1419l120 11l84 -699l179 688l116 4l-221 -766l-20 -643h-183l60 580zM156 1573l245 201l97 -132l-275 -161z" />
<glyph unicode="&#xde;" horiz-adv-x="618" d="M-2 6l18 1428l146 12l-2 -266q29 14 66.5 21t84.5 3q63 -4 107.5 -31.5t70 -83t38 -141.5t14.5 -209q6 -238 -53.5 -345t-192.5 -111q-39 -2 -76 6t-65 22l-2 -293zM156 455q27 -18 54 -25.5t56 -3.5q76 10 100.5 98t18.5 228q-4 70 -9 127t-18.5 100t-41 67.5 t-72.5 26.5q-47 4 -84 -24z" />
<glyph unicode="&#xdf;" horiz-adv-x="641" d="M8 0q12 362 21 662q4 127 8 252.5t7 231t5 181.5t4 103h156h174q39 -6 63.5 -22.5t38 -38t18.5 -47.5t5 -48v-77t-1 -119.5t-3 -133t-4 -117.5q-4 -47 -33 -79.5t-64 -51.5q-39 -23 -90 -34q78 -4 125 -19.5t72 -38t33 -48t10 -50.5q2 -16 3 -56t1 -89.5t-3 -98.5 t-11 -86q-18 -76 -49 -117t-101 -49q-16 -4 -36.5 -4t-41.5 -2q-23 -2 -49 -2v113h37q16 0 30.5 1t22.5 5q29 8 41.5 30.5t16.5 69.5q2 25 4 57.5t4 66.5t2 63.5v46.5q0 39 -6 79.5t-41 61.5q-18 10 -41 18.5t-43 14.5q-23 8 -47 12v35q53 20 82.5 59t33.5 84q2 14 3.5 48 t2.5 78t2 91t2 88t1 69v34q0 12 2 42.5t-2 47.5q-2 43 -29 53t-61 10q-8 2 -31 2h-51q0 -43 -2 -125.5t-3 -187t-3.5 -224.5t-4.5 -239q-6 -279 -12 -602z" />
<glyph unicode="&#xe0;" d="M-2 16l164 11l65 424l258 2l78 -447l156 21l-234 1398l-245 7zM102 1640l97 132l245 -201l-67 -90zM256 555l92 735l117 -733z" />
<glyph unicode="&#xe1;" d="M-2 16l240 1416l247 -7l234 -1398l-156 -21l-78 447l-258 -2l-65 -424zM256 555l209 2l-117 733zM270 1571l246 201l96 -132l-274 -159z" />
<glyph unicode="&#xe2;" d="M-2 16l242 1416l247 -5l232 -1400l-154 -21l-78 447l-260 -2l-63 -426zM156 1536l219 199l205 -199l-80 -49l-133 131l-148 -131zM256 555l211 2l-119 733z" />
<glyph unicode="&#xe3;" d="M-2 16l166 9l65 426l260 2l78 -447l154 21l-232 1400l-247 5zM117 1606q6 8 22 28q10 10 19.5 18.5t19.5 18.5q12 10 24.5 18.5t26.5 14.5q27 14 56 14q39 0 55 -16q23 -16 33 -35l14 -17.5t10 -17.5q12 -16 33 -16q12 0 29 10q12 10 22 23q6 6 12.5 14t12.5 16l80 -67 q-6 -8 -27 -29q-8 -8 -17.5 -16t-19.5 -17q-10 -8 -21.5 -15t-21.5 -11q-23 -12 -41 -13q-35 0 -51 15q-10 6 -18.5 12t-14.5 14l-28 29q-14 14 -35 14q-23 0 -37 -12q-8 -6 -15.5 -13t-13.5 -14q-6 -10 -12 -19t-12 -21zM258 555l92 735l119 -733z" />
<glyph unicode="&#xe4;" d="M-2 16l166 9l65 426l258 2l80 -447l154 21l-234 1400l-245 5zM137 1595q-4 25 6 43q6 18 19 31q12 12 28 19q18 6 33 6q18 2 37 -6q14 -6 27 -19q12 -12 18 -29q8 -20 8 -34q0 -12 -4 -33l-7 -17.5t-9 -13.5q-10 -16 -25 -24q-16 -11 -32 -11q-10 0 -17.5 1t-17.5 3 q-16 6 -29 19q-12 6 -22 29q-10 14 -13 36zM258 555l92 735l117 -733zM418 1599v18.5t4 16.5q6 14 16 29q6 4 12.5 9t14.5 9t31 9q33 0 59 -23q27 -23 27 -59q4 -35 -19 -60q-22 -24 -59 -24q-35 -4 -60 20q-23 20 -26 55z" />
<glyph unicode="&#xe5;" d="M-2 16l242 1416l247 -5l234 -1400l-156 -21l-78 447l-258 -2l-65 -426zM225 1640q0 33 11 56q14 29 30 45q25 20 47 31q25 12 56 12t59 -12q23 -10 47 -31q21 -18 31 -45q12 -29 12 -56q0 -31 -12 -55q-10 -25 -31 -43q-25 -20 -47 -31q-31 -10 -59 -10q-29 0 -56 10 q-23 10 -47 31q-18 18 -30 43q-10 20 -11 55zM256 555l211 2l-117 733zM299 1632q0 -12 6 -24q8 -16 14 -23q6 -6 23 -14q16 -4 27 -4q30 0 53 18q20 20 20 47q0 29 -20 47q-23 18 -53 19q-29 0 -50 -19q-20 -20 -20 -47z" />
<glyph unicode="&#xe6;" horiz-adv-x="1085" d="M-35 16l535 1422l512 -8l2 -93h-293l-10 -733h159l2 -110h-163l-4 -381l251 -2v-107l-456 4l18 447l-227 -4l-148 -424zM330 571h192l29 666z" />
<glyph unicode="&#xe7;" horiz-adv-x="679" d="M2 774q0 119 5 211t14.5 163t21.5 121t31 85q18 37 50 54t68.5 23.5t74.5 4.5t69 -4q80 -8 139.5 -27t87.5 -59q14 -20 20.5 -60.5t9.5 -84.5t3 -83v-55l-160 14v60q0 25 -1 48t-1 40q0 25 -19.5 43t-46 30.5t-54 17.5t-44.5 5q-76 0 -88 -121q-2 -23 -4 -72t-5 -109.5 t-6 -128t-5 -130t-4 -113.5t-2 -80v-94t2 -124.5t4 -115t2 -63.5q4 -29 25.5 -50.5t68.5 -21.5q49 0 74.5 14.5t34.5 55.5q4 20 6 52t2 63v73h184q-2 -63 -10 -118q-8 -47 -22.5 -96.5t-41.5 -71.5q-27 -23 -48 -37.5t-44.5 -21.5t-52.5 -9t-72 0q-4 -12 -2 -16 q4 -18 28.5 -26.5t53.5 -17t54.5 -22.5t29.5 -45q6 -31 -9 -65.5t-51 -62.5t-92.5 -44t-134.5 -10l-6 114q41 -6 76 -4q29 2 54.5 10.5t33.5 30.5q8 23 -14.5 35t-53 22.5t-58 23t-27.5 34.5q-2 20 8 33.5t24 23.5q-63 25 -101 75t-48 97q-16 59 -25.5 201.5t-5.5 384.5z " />
<glyph unicode="&#xe8;" horiz-adv-x="557" d="M-20 8l454 -2l2 105l-252 2l4 381h164l-2 110h-160l11 731h293l-2 92l-453 5zM-16 1640l96 132l246 -201l-68 -90z" />
<glyph unicode="&#xe9;" horiz-adv-x="557" d="M-20 8l59 1424l453 -5l2 -92h-293l-11 -731h160l2 -110h-164l-4 -381l252 -2v-105zM152 1571l245 201l97 -132l-275 -159z" />
<glyph unicode="&#xea;" horiz-adv-x="557" d="M-20 8l59 1426l453 -4l2 -93h-293l-11 -733h160l2 -110h-164l-4 -381l252 -2v-107zM51 1536l219 199l205 -199l-80 -49l-133 131l-147 -131z" />
<glyph unicode="&#xeb;" horiz-adv-x="557" d="M-20 4l454 -4l2 106h-252l2 381l166 2l-2 109h-160l11 735h293l-2 90l-453 7zM41 1595q0 25 6 43q6 20 21 31q12 12 28 19q14 6 33 6q18 4 35 -6q18 -8 26 -19q12 -12 19 -29q8 -14 8 -34v-16.5t-4 -16.5q-6 -20 -14 -31q-12 -16 -27 -24q-15 -11 -33 -11q-12 0 -33 4 q-18 6 -30 19q-12 10 -23 29q-10 14 -12 36zM322 1599q0 18 6 35q2 14 16 29q8 8 25 18q6 4 14 5.5t16 3.5q35 0 62 -23q25 -23 24 -59q4 -35 -18 -60q-22 -24 -57 -24q-37 -2 -60 20q-25 23 -28 55z" />
<glyph unicode="&#xec;" horiz-adv-x="335" d="M-117 1642l99 132l245 -201l-67 -92zM39 0l20 1427l144 15l-8 -1430z" />
<glyph unicode="&#xed;" horiz-adv-x="327" d="M29 0l20 1427l146 15l-11 -1430zM47 1573l246 201l96 -132l-276 -161z" />
<glyph unicode="&#xee;" horiz-adv-x="327" d="M-88 1536l219 199l205 -199l-80 -49l-133 131l-146 -131zM41 0l20 1427l146 15l-10 -1430z" />
<glyph unicode="&#xef;" horiz-adv-x="335" d="M-96 1595q-2 23 4 43q4 10 9 17.5t11 13.5q12 12 29 19q14 6 33 6q18 4 35 -6q16 -6 28 -19q12 -12 19 -29q6 -16 6 -34q2 -14 -4 -33q-2 -14 -15 -31q-10 -16 -24 -24q-17 -11 -33 -11q-14 0 -35 4q-10 4 -16 8.5l-14 10.5q-12 10 -23 29q-10 16 -10 36zM35 0l20 1427 l144 15l-9 -1430zM184 1599q-2 16 4 35q8 20 17 29q4 4 11 9t13 9q10 4 31 9q35 0 62 -23q23 -20 26 -59q4 -35 -20 -60q-23 -24 -58 -24q-35 -4 -59 20q-27 23 -27 55z" />
<glyph unicode="&#xf0;" horiz-adv-x="700" d="M-61 879l155 2q2 104 4 204.5t4 178.5q2 92 4 172q33 2 66 2h127q76 -2 132 -37t99 -88q47 -59 62.5 -127t19.5 -146q2 -55 3 -147t0 -188.5t-4 -181.5t-9 -126q-8 -57 -17.5 -108t-25.5 -103q-10 -31 -34.5 -59.5t-56.5 -51t-69 -39t-73 -22.5q-41 -8 -84 -11t-80 -5 q-43 -2 -84 -2q-2 59 -2 119v107.5t2 101.5t4 144t6 226h-147zM240 156h34h29.5t28.5 4q45 6 76 47q16 18 25 46t16 52q4 20 10 64.5t12 98.5t11 112.5t7 107.5q2 45 2.5 102.5t-1 114t-3.5 102.5t-4 68q-10 59 -30.5 113.5t-36.5 83.5q-16 35 -60 45q-6 0 -19 1t-28 1h-33 l-14 -436l137 2l-10 -193h-133z" />
<glyph unicode="&#xf1;" horiz-adv-x="706" d="M2 25h186l-8 794l246 -811l152 6l12 1416h-146l-28 -928l-244 925l-145 -2zM74 1606q6 8 22 28q10 10 19.5 18.5t21.5 18.5q10 10 22.5 18.5t26.5 14.5q27 14 56 14q39 0 57 -16q20 -16 33 -35q6 -10 12 -17.5t12 -17.5q10 -16 31 -16q12 0 29 10q6 4 12 10t12 13 q6 6 11.5 14t11.5 16l80 -67q-6 -8 -27 -29q-8 -8 -17.5 -16t-19.5 -17q-10 -8 -21.5 -15t-21.5 -11q-23 -12 -41 -13q-35 0 -51 15q-10 6 -18.5 12t-14.5 14q-8 8 -14 15.5t-14 13.5q-14 14 -35 14q-23 0 -37 -12q-16 -14 -27 -27q-16 -20 -24 -40z" />
<glyph unicode="&#xf2;" horiz-adv-x="653" d="M10 281q4 -66 14.5 -117t26.5 -84q16 -35 43 -55.5t78 -24.5q12 0 21.5 -1t20.5 -1h27.5h43.5q55 -2 85.5 7t49.5 26q20 18 51 63t47 113q6 29 10 64.5t6.5 71.5t3.5 68.5t1 55.5q0 18 1 78.5t3 141.5t3 172t2 170t1 136.5v71.5q0 94 -74 154q-37 29 -87 37t-120 6 q-57 -2 -101 -28t-63 -50q-10 -16 -21 -43t-20 -74q-4 -23 -9 -77t-11 -121.5t-12 -139.5t-11 -133q-2 -14 -3 -51t-2 -86t-2 -104.5t-2 -104.5t-1 -87v-54zM68 1642l96 132l246 -201l-68 -92zM164 175.5q2 35.5 4 60.5q0 4 4 81.5t10 193.5t14.5 249t14.5 247.5t11 192.5 t5 80q2 23 8.5 32t26.5 9q25 2 48.5 1t29.5 -3q27 0 41 -8t16 -37q0 -12 1 -92t1 -195t-1 -246t-1 -244.5t-1 -192.5t-1 -87q-2 -39 -6 -60.5t-20 -41.5q-10 -14 -25.5 -27.5t-46.5 -13.5q-68 -4 -74 0q-18 2 -31.5 11t-21.5 32t-6 58.5z" />
<glyph unicode="&#xf3;" horiz-adv-x="653" d="M11 335q1 38 1 87t2 104.5t3 104.5t2 86t4 51q4 61 10 133t12 139.5t11 122t10 76.5q6 47 18 73.5t22 43.5q16 25 60.5 50.5t101.5 27.5q70 2 120 -6.5t87 -36.5q39 -29 56.5 -68t19.5 -86v-71.5t-1 -136.5t-3 -170t-4 -172t-3 -141.5t-1 -78.5q0 -23 -1 -55.5 t-3.5 -68.5t-6.5 -71.5t-10 -64.5q-14 -68 -46 -113t-50 -63q-20 -16 -51 -25.5t-84 -7.5h-43.5h-27.5t-21.5 1t-22.5 1q-49 4 -75.5 24.5t-43.5 55.5q-35 66 -41 201q-2 16 -1 54zM166 175q-2 -36 6 -58q6 -23 20.5 -32t30.5 -11q8 -2 76 0q29 0 44 13t26 28q16 20 20 41.5 t6 60.5q0 8 1 87t1 192.5t1 244.5t1 246v195v92q-2 29 -16 37t-41 8q-8 2 -31.5 3t-46.5 -1q-35 0 -37 -41q0 -2 -4 -80t-11 -192.5t-14.5 -247.5t-14.5 -249t-11 -193.5t-4 -81.5q0 -25 -2 -61zM242 1573l245 201l97 -132l-277 -161z" />
<glyph unicode="&#xf4;" horiz-adv-x="653" d="M10 287v54t1 88t2 105.5t2 104.5t2 86t3 51q4 61 10.5 133t12.5 139.5t12 122t11 76.5q6 47 17 73t21 42q18 27 62.5 52.5t101.5 25.5q70 4 120 -5.5t87 -37.5q72 -58 76 -154q0 -14 -1 -71.5t-2 -136.5t-2 -169t-3 -171t-3 -141t-1 -79q0 -25 -1 -57.5t-3.5 -68.5 t-6.5 -71.5t-10 -62.5q-16 -70 -47 -115t-51 -61q-18 -16 -49 -26.5t-84 -8.5q-29 0 -45.5 1t-27.5 1h-20.5t-21.5 2q-51 4 -76.5 23.5t-44.5 54.5q-31 66 -41 201zM106 1536l220 199l204 -199l-79 -49l-134 131l-145 -131zM165 182q-1 -37 5 -59q14 -39 53 -43h74 q31 2 46 14t26 27q16 23 20 43t6 59q0 8 1 87t1 192.5t1 245t1 246v194.5v92q-4 29 -17 37t-42 10q-6 0 -29.5 1t-46.5 1q-23 -2 -29 -10t-8 -31q0 -2 -2 -47t-7 -118.5t-10 -166t-10 -189.5t-10.5 -189.5t-10.5 -166t-7 -119.5t-2 -50q-2 -23 -3 -60z" />
<glyph unicode="&#xf5;" horiz-adv-x="653" d="M11 341q-1 -38 1 -54q4 -66 14.5 -117t26.5 -84q16 -35 43 -54.5t76 -23.5q12 -2 22.5 -2h21.5t27.5 -1t43.5 -1q53 -2 83.5 8.5t51.5 26.5q18 16 50 61t46 115q6 27 10 62.5t6.5 71.5t3.5 69t1 57q0 18 1 78.5t3 141.5t4 171t3 169t1 136.5v71.5q-4 98 -74 154 q-39 29 -88 38t-121 5q-57 0 -101 -25.5t-61 -52.5q-10 -16 -21 -42t-19 -73q-4 -23 -9.5 -77t-11.5 -121.5t-12 -139t-10 -133.5q-2 -14 -3.5 -51t-2.5 -86t-3 -104.5t-2 -105.5t-1 -88zM96 1606q6 8 23 28q8 10 18 18.5t21 18.5q12 10 24.5 18.5t26.5 14.5q23 14 55 14 q39 0 55 -16q10 -8 18.5 -16.5t14.5 -18.5t12.5 -17.5t12.5 -17.5q12 -16 33 -16q12 0 26 10q14 8 25 23q6 6 12 14l12 16l78 -67q-4 -6 -10 -12.5t-14 -16.5q-10 -8 -19.5 -16t-19.5 -17q-23 -18 -41 -26q-23 -12 -43 -13q-33 0 -49 15q-18 10 -35 26q-6 8 -13.5 15.5 l-13.5 13.5q-14 14 -35 14q-23 0 -37 -12q-10 -6 -16 -13l-12 -14q-6 -10 -12.5 -19t-12.5 -21zM166 182.5q2 36.5 2 59.5q0 4 2 50t7 119.5t10.5 166t10.5 189.5t10 189.5t10 166t7 118.5t2 47q2 39 37 41q25 0 47.5 -1t30.5 -1q27 -2 41 -10t16 -37v-92v-194.5v-246 t-1 -245t-1 -192.5v-87q-4 -39 -8 -59.5t-20 -42.5q-10 -14 -24.5 -26.5t-45.5 -14.5h-76q-37 4 -51 43q-8 23 -6 59.5z" />
<glyph unicode="&#xf6;" horiz-adv-x="653" d="M10 287q10 -137 43 -201q16 -35 42 -54.5t77 -23.5q12 -2 21.5 -2h20.5t27.5 -1t45.5 -1q53 -2 83.5 8.5t49.5 26.5q20 16 51 61t47 115q6 27 10 62.5t6.5 71.5t3.5 69t1 57q0 18 1 78.5t3 141.5t3 171t2 169t2 136.5t1 71.5q-2 47 -19.5 86t-56.5 68q-37 29 -87 38 t-120 5q-57 0 -101 -25.5t-63 -52.5q-10 -16 -21 -42t-17 -73q-4 -23 -10.5 -77t-12.5 -121.5t-12 -139t-11 -133.5q0 -14 -1 -51t-3 -86t-3 -104.5t-2 -105.5t-1 -88v-54zM92 1595q-2 23 4 43q4 10 9.5 17.5t11.5 13.5q12 12 28 19q14 6 33 6q18 4 35 -6q16 -6 29 -19 q12 -12 18 -29q6 -16 6 -34q2 -14 -4 -33q-2 -14 -14 -31q-10 -16 -25 -24q-17 -11 -33 -11q-10 0 -17 1t-17 3q-10 4 -16.5 8.5t-14.5 10.5q-12 10 -23 29q-10 16 -10 36zM166 182.5q2 36.5 2 59.5q0 4 2 50t7 119.5t10.5 166t10.5 189.5t10 189.5t10 166t7 118.5t2 47 q2 23 8.5 31t28.5 10q23 0 46.5 -1t29.5 -1q29 -2 43 -10t16 -37v-92v-194.5t-1 -246t-1 -245t-1 -192.5t-1 -87q-2 -39 -6 -59.5t-20 -42.5q-10 -14 -25.5 -26.5t-46.5 -14.5h-74q-39 4 -53 43q-6 23 -4 59.5zM373 1599q-2 16 4 35q8 20 16 29q4 4 11.5 9l13.5 9q10 4 31 9 q35 0 61 -23q23 -20 27 -59q4 -35 -21 -60q-22 -24 -57 -24q-35 -4 -60 20q-27 23 -26 55z" />
<glyph unicode="&#xf7;" horiz-adv-x="770" d="M0 741l668 9l-2 -201l-658 -8zM229 867q-12 40 9 81q29 51 61.5 63.5t65.5 4.5q20 -6 32.5 -19.5t17.5 -32t4 -38t-9 -35.5q-25 -51 -61 -67.5t-73 -6.5q-35 10 -47 50zM231.5 334q-10.5 41 6.5 74q25 51 60.5 67.5t72.5 5.5q35 -10 47 -50t-8 -81q-27 -51 -60.5 -63 t-66.5 -4q-41 10 -51.5 51z" />
<glyph unicode="&#xf8;" horiz-adv-x="653" d="M11 341q1 38 1 88t2 105.5t3 104.5t2 86t4 51q4 61 10 133t12 139.5t11 122t10 76.5q8 47 19 73t21 42q18 27 61.5 52.5t100.5 25.5q45 2 82 0l17 116l131 -4l-25 -153q2 0 4 -2q70 -56 74 -154v-71.5t-1 -136.5t-3 -169t-4 -171t-3 -141t-1 -79q0 -25 -1 -57.5 t-3.5 -68.5t-6.5 -71.5t-10 -62.5q-14 -70 -46 -115t-50 -61q-20 -16 -50 -26.5t-85 -8.5h-35l-19 -104l-106 10l14 102q-35 10 -54 27.5t-34 46.5q-16 33 -26.5 84t-14.5 117q-2 16 -1 54zM166 178l168 1149q-10 0 -29.5 1t-40.5 1q-20 -2 -26.5 -10t-10.5 -31q0 -2 -2 -47 t-6 -118.5t-9 -166t-11 -189.5t-11.5 -189.5t-9.5 -166t-7 -119.5t-3 -50q0 -12 -1 -29.5t-1 -34.5zM262 80h37q31 2 45.5 14.5t24.5 26.5q16 23 21 43t7 59v79t1 175.5t1 228v236.5z" />
<glyph unicode="&#xf9;" horiz-adv-x="716" d="M20 378.5q0 61.5 1.5 127t3.5 123.5q0 20 2 65t5 106.5t7 132.5l8 142q9 166 21 365l190 -6q-20 -233 -35 -424q-6 -82 -13 -162t-12 -145.5t-8.5 -110.5t-5.5 -57q-4 -27 -8 -83.5t-8 -118t-8 -112.5t-4 -65q-2 -16 3 -24.5t25 -10.5q31 -2 57.5 -2h39.5q20 0 29 8 t14 31q2 10 7 53t12 104.5t14.5 133t15.5 138t14 122t10 84.5q2 20 7.5 58t9.5 86t9 101.5t11 106.5q12 123 27 266l180 -10q-20 -174 -37 -318q-6 -61 -13 -120.5t-13.5 -109.5t-10.5 -85t-4 -45q-2 -23 -11 -81t-19.5 -125.5t-20.5 -130t-16 -89.5q-10 -63 -31 -114.5 t-35 -73.5q-14 -23 -32.5 -44.5t-65.5 -41.5q-39 -16 -73 -20.5t-60 -4.5q-33 2 -74 7t-64 34q-29 35 -31.5 71.5t-6.5 77.5q-2 27 -2.5 78t-0.5 112.5zM135 1642l98 132l246 -201l-67 -92z" />
<glyph unicode="&#xfa;" horiz-adv-x="716" d="M20 378.5q0 61.5 2.5 127t4.5 123.5q0 20 2 65t5 106.5t7 132.5l8 142q9 166 19 365l192 -6q-18 -233 -35 -424q-6 -82 -13 -162t-12 -145.5t-9.5 -110.5t-6.5 -57q-4 -27 -8 -83.5t-8 -118t-8 -112.5t-4 -65q-2 -16 4 -24.5t26 -10.5q31 -2 57.5 -2h39.5q18 0 27 8 t14 31q2 10 7 53t12 104.5t15.5 133t16.5 138t14 122t10 84.5q2 20 6.5 58t9.5 86t10 101.5t11 106.5q12 123 25 266l180 -10q-20 -174 -37 -318q-6 -61 -13 -120.5t-13.5 -109.5t-10.5 -85t-4 -45q-2 -23 -10 -81t-19.5 -125.5t-20.5 -130t-15 -89.5q-12 -63 -33 -114.5 t-33 -73.5q-14 -23 -32.5 -44.5t-65.5 -41.5q-41 -16 -75 -20.5t-60 -4.5q-33 2 -73 7t-65 34q-29 35 -30.5 71.5t-5.5 77.5q-2 27 -3.5 78t-1.5 112.5zM295 1573l246 201l96 -132l-275 -161z" />
<glyph unicode="&#xfb;" horiz-adv-x="716" d="M20 387.5q0 61.5 1.5 127t3.5 120.5q0 20 2 65t5 106.5t7 132.5l8 142q9 166 21 365l190 -6q-20 -233 -35 -424q-6 -82 -13 -162t-12 -145.5t-8.5 -110.5t-5.5 -57q-4 -25 -8 -82.5t-8 -117.5t-8 -111.5t-4 -65.5q-2 -18 3 -26.5t25 -10.5q31 -2 57.5 -2t39.5 2 q20 0 29 7t14 32q2 10 7 53t12 104.5t14.5 133t15.5 138.5t14 122t10 84q2 20 7.5 58t9.5 86t9 100.5t11 105.5q10 123 25 266l182 -8q-20 -176 -37 -319q-6 -61 -13 -122t-13.5 -110t-10.5 -84t-4 -45q-2 -20 -11 -79.5t-19.5 -127t-20.5 -129t-16 -88.5 q-10 -63 -31 -115.5t-35 -74.5q-14 -23 -32.5 -44.5t-65.5 -41.5q-39 -16 -73 -20.5t-62 -2.5q-31 0 -72 5t-64 34q-29 37 -31.5 73t-6.5 77q-2 29 -2.5 80t-0.5 112.5zM168 1536l219 199l205 -199l-80 -49l-133 131l-146 -131z" />
<glyph unicode="&#xfc;" horiz-adv-x="716" d="M20 387.5q0 61.5 2.5 127t4.5 120.5q0 20 2 65t5 106.5t7 132.5l8 142q9 166 19 365l192 -6q-18 -233 -35 -424q-6 -82 -13 -162t-12 -145.5t-9.5 -110.5t-6.5 -57q-4 -25 -8 -82.5t-8 -117.5t-8 -111.5t-4 -65.5q-2 -18 4 -26.5t26 -10.5q31 -2 57.5 -2t39.5 2 q18 0 27 7t14 32q2 10 7 53t12 104.5t15.5 133t16.5 138.5t14 122t10 84q2 20 6.5 58t9.5 86t10 100.5t11 105.5q12 123 25 266l180 -8q-20 -176 -37 -319q-6 -61 -13 -122t-13.5 -110t-10.5 -84t-4 -45q-2 -20 -10 -79.5t-19.5 -127t-20.5 -129t-15 -88.5 q-12 -63 -33 -115.5t-35 -74.5q-12 -23 -30.5 -44.5t-65.5 -41.5q-41 -16 -75 -20.5t-60 -2.5q-33 0 -74 5t-64 34q-29 37 -30.5 73t-5.5 77q-2 29 -3.5 80t-1.5 112.5zM154 1595q-2 23 4 43q4 10 9 17.5t11 13.5q12 12 29 19q14 6 33 6q18 4 34 -6q16 -6 29 -19 q12 -12 19 -29q6 -16 6 -34q2 -14 -4 -33q-2 -14 -15 -31q-10 -16 -24 -24q-17 -11 -33 -11q-10 0 -17.5 1t-17.5 3q-10 4 -16 8.5t-15 10.5q-12 10 -22 29q-10 16 -10 36zM434 1599q-2 16 4 35q8 20 17 29q4 4 11 9t13 9q10 4 31 9q35 0 61 -23q23 -20 27 -59 q4 -35 -20 -60q-23 -24 -58 -24q-35 -4 -59 20q-27 23 -27 55z" />
<glyph unicode="&#xfd;" horiz-adv-x="548" d="M-16 1419l120 11l84 -699l179 688l116 4l-221 -766l-20 -643h-183l60 580zM156 1573l245 201l97 -132l-275 -161z" />
<glyph unicode="&#xfe;" horiz-adv-x="618" d="M-2 6l18 1428l146 12l-2 -266q29 14 66.5 21t84.5 3q63 -4 107.5 -31.5t70 -83t38 -141.5t14.5 -209q6 -238 -53.5 -345t-192.5 -111q-39 -2 -76 6t-65 22l-2 -293zM156 455q27 -18 54 -25.5t56 -3.5q76 10 100.5 98t18.5 228q-4 70 -9 127t-18.5 100t-41 67.5 t-72.5 26.5q-47 4 -84 -24z" />
<glyph unicode="&#xff;" horiz-adv-x="548" d="M-16 1419l118 11l86 -699l179 688l116 4l-221 -766l-20 -643h-183l60 580zM12 1595q0 12 1 22.5t5 20.5q6 18 19 31q16 14 29 19q18 6 34 6q16 2 35 -6q14 -6 27 -19q12 -12 18 -29q8 -20 8 -34v-16.5t-4 -16.5l-7 -17.5t-9 -13.5q-10 -16 -25 -24q-16 -11 -32 -11 q-8 0 -16.5 1t-18.5 3q-16 6 -29 19q-12 6 -22 29q-10 14 -13 36zM293 1599q0 14 4 35q6 14 16 29q6 4 12.5 9t14.5 9t31 9q33 0 59 -23q27 -23 27 -59q4 -35 -19 -60q-22 -24 -59 -24q-35 -4 -60 20q-23 20 -26 55z" />
<glyph unicode="&#x152;" horiz-adv-x="987" d="M2 774q0 119 5 211t14.5 163t21.5 121t31 85q35 72 128 84t234 -4q6 0 28.5 -1t54.5 -2t72 -1h81h211l2 -93h-293l-10 -733h159l2 -110h-163l-5 -381l252 -2l-2 -107q-145 -2 -264 -2h-101h-92h-73h-41q-47 2 -85 20.5t-65.5 46t-46 59.5t-24.5 60q-16 59 -25.5 201.5 t-5.5 384.5zM156 567q0 -33 1 -94t2 -124.5t3 -115t4 -63.5q4 -29 24.5 -50.5t67.5 -21.5q43 0 75 6.5t46 36.5l43 1155q-10 12 -28.5 18.5t-40 8.5t-43 1t-40.5 -3q-76 -4 -88 -121q-2 -23 -4 -72t-5 -109.5t-6 -128t-5 -130t-4 -113.5t-2 -80z" />
<glyph unicode="&#x153;" horiz-adv-x="987" d="M2 774q0 119 5 211t14.5 163t21.5 121t31 85q35 72 128 84t234 -4q6 0 28.5 -1t54.5 -2t72 -1h81h211l2 -93h-293l-10 -733h159l2 -110h-163l-5 -381l252 -2l-2 -107q-145 -2 -264 -2h-101h-92h-73h-41q-47 2 -85 20.5t-65.5 46t-46 59.5t-24.5 60q-16 59 -25.5 201.5 t-5.5 384.5zM156 567q0 -33 1 -94t2 -124.5t3 -115t4 -63.5q4 -29 24.5 -50.5t67.5 -21.5q43 0 75 6.5t46 36.5l43 1155q-10 12 -28.5 18.5t-40 8.5t-43 1t-40.5 -3q-76 -4 -88 -121q-2 -23 -4 -72t-5 -109.5t-6 -128t-5 -130t-4 -113.5t-2 -80z" />
<glyph unicode="&#x178;" horiz-adv-x="548" d="M-16 1419l118 11l86 -699l179 688l116 4l-221 -766l-20 -643h-183l60 580zM12 1595q0 12 1 22.5t5 20.5q6 18 19 31q16 14 29 19q18 6 34 6q16 2 35 -6q14 -6 27 -19q12 -12 18 -29q8 -20 8 -34v-16.5t-4 -16.5l-7 -17.5t-9 -13.5q-10 -16 -25 -24q-16 -11 -32 -11 q-8 0 -16.5 1t-18.5 3q-16 6 -29 19q-12 6 -22 29q-10 14 -13 36zM293 1599q0 14 4 35q6 14 16 29q6 4 12.5 9t14.5 9t31 9q33 0 59 -23q27 -23 27 -59q4 -35 -19 -60q-22 -24 -59 -24q-35 -4 -60 20q-23 20 -26 55z" />
<glyph unicode="&#x2c6;" horiz-adv-x="1069" d="M16 807l547 631l404 -676l-146 -39l-272 532l-342 -546z" />
<glyph unicode="&#x2dc;" horiz-adv-x="1028" d="M4 1229q37 55 86 98q41 37 97.5 68.5t123.5 36.5q76 4 121 -27t77 -68t61.5 -67.5t74.5 -28.5q29 2 57.5 23.5t51.5 46.5q25 29 49 65l123 -110q-45 -51 -92 -90q-41 -35 -90.5 -63t-96.5 -26q-68 0 -107.5 28t-69.5 60.5t-58.5 58.5t-73.5 21q-39 -4 -76 -29.5 t-65 -56.5q-35 -37 -64 -79z" />
<glyph unicode="&#x2000;" horiz-adv-x="892" />
<glyph unicode="&#x2001;" horiz-adv-x="1784" />
<glyph unicode="&#x2002;" horiz-adv-x="892" />
<glyph unicode="&#x2003;" horiz-adv-x="1784" />
<glyph unicode="&#x2004;" horiz-adv-x="594" />
<glyph unicode="&#x2005;" horiz-adv-x="446" />
<glyph unicode="&#x2006;" horiz-adv-x="297" />
<glyph unicode="&#x2007;" horiz-adv-x="297" />
<glyph unicode="&#x2008;" horiz-adv-x="223" />
<glyph unicode="&#x2009;" horiz-adv-x="356" />
<glyph unicode="&#x200a;" horiz-adv-x="99" />
<glyph unicode="&#x2010;" horiz-adv-x="475" d="M-10 602h399l-22 -192l-367 -7z" />
<glyph unicode="&#x2011;" horiz-adv-x="475" d="M-10 602h399l-22 -192l-367 -7z" />
<glyph unicode="&#x2012;" horiz-adv-x="475" d="M-10 602h399l-22 -192l-367 -7z" />
<glyph unicode="&#x2013;" horiz-adv-x="475" d="M-10 602h399l-22 -192l-367 -7z" />
<glyph unicode="&#x2014;" horiz-adv-x="743" d="M-10 606l667 6l-2 -198l-657 -8z" />
<glyph unicode="&#x2018;" horiz-adv-x="292" d="M0 1282v88q0 35 2 76l211 -2v-180h-107q-2 -14 0 -31q2 -14 7.5 -32t17.5 -36q16 -23 39 -39t61 -36q-27 2 -53 10q-23 6 -51.5 18t-54.5 33q-29 23 -43.5 47.5t-22.5 42.5q-4 10 -4 18.5t-2 22.5z" />
<glyph unicode="&#x2019;" horiz-adv-x="303" d="M10 1090q39 20 62 36t39 39q20 37 24 68q2 16 0 31h-106v180l211 2v-76q0 -29 1 -55.5t1 -32.5q-2 -14 -2 -22.5t-4 -18.5q-8 -18 -22.5 -42.5t-43.5 -47.5q-29 -20 -56.5 -32.5t-50.5 -18.5q-27 -8 -53 -10z" />
<glyph unicode="&#x201c;" horiz-adv-x="622" d="M2 1282v88q0 35 2 76l211 -2v-180h-106q-2 -14 0 -31q2 -14 7 -32t17 -36q16 -23 39 -39t61 -36q-27 2 -53 10q-23 6 -51.5 18t-54.5 33q-29 23 -43.5 47.5t-22.5 42.5q-4 10 -4 18.5t-2 22.5zM309 1282v88q0 35 2 76l211 -2v-180h-106q-2 -14 0 -31q2 -14 7 -32t17 -36 q16 -23 39 -39t62 -36q-27 2 -54 10q-23 6 -51 18t-55 33q-29 23 -43 47.5t-23 42.5q-4 10 -4 18.5t-2 22.5z" />
<glyph unicode="&#x201d;" horiz-adv-x="595" d="M6 1090q39 20 61.5 36t38.5 39q20 37 25 68q2 16 0 31h-106v180l211 2v-76q0 -29 1 -55.5t1 -32.5q-2 -14 -2 -22.5t-5 -18.5q-8 -18 -22 -42.5t-43 -47.5q-29 -20 -56.5 -32.5t-50.5 -18.5q-27 -8 -53 -10zM313 1090q39 20 62 36t39 39q20 37 24 68q2 16 0 31h-106v180 l211 2v-76q0 -29 1 -55.5t1 -32.5q-2 -14 -2 -22.5t-4 -18.5q-8 -18 -22.5 -42.5t-43.5 -47.5q-29 -20 -56.5 -32.5t-49.5 -18.5q-27 -8 -54 -10z" />
<glyph unicode="&#x2022;" horiz-adv-x="536" d="M-3 614q-1 41 13.5 87.5t40.5 89.5q37 53 78 93t84 61.5t84 21.5t78 -27q39 -29 50 -67.5t4 -79.5t-26.5 -81t-42.5 -71q-61 -88 -135.5 -133t-148.5 -16q-41 14 -59.5 47.5t-19.5 74.5z" />
<glyph unicode="&#x202f;" horiz-adv-x="356" />
<glyph unicode="&#x205f;" horiz-adv-x="446" />
<glyph unicode="&#x20ac;" horiz-adv-x="630" d="M-12 602l116 2q2 23 3.5 46.5t3.5 47.5h-119l-2 187h133q8 137 14 238.5t6 123.5q4 59 35 94t68 58t89 32t105 5q27 -2 48.5 -5.5t37.5 -7.5q18 -4 33 -8v-82q-33 8 -61 17q-25 6 -50.5 10t-41.5 2q-29 -4 -49.5 -23.5t-34.5 -72.5q-4 -14 -8.5 -51t-8.5 -89.5t-9 -115 t-9 -123.5l166 2l-13 -193l-166 2q-2 -29 -3 -52t-3 -40h181v-200l-189 -3q0 -66 -1 -126t-1 -78q0 -35 9 -54.5t50 -23.5q20 -2 53 -1t66 5q37 2 78 6l2 -121q-45 -2 -88 -2q-37 -2 -79 -2h-75q-68 0 -101.5 2t-55.5 29q-23 29 -29 50.5t-8 59.5q0 10 3 81t9 175h-96z" />
<glyph unicode="&#x2122;" horiz-adv-x="739" d="M2 1417l2 -43h86l-29 -543l93 5l22 540l98 2l5 47zM313 834l2 589l80 -2l82 -334l68 347l82 -4l10 -596l-68 4l-4 395l-65 -227h-41l-68 153v-325h-78z" />
</font>
</defs>
</svg>
